<?xml version="1.0" encoding="utf-8" standalone="no"?>
<!DOCTYPE svg PUBLIC "-//W3C//DTD SVG 1.1//EN"
  "http://www.w3.org/Graphics/SVG/1.1/DTD/svg11.dtd">
<svg xmlns:xlink="http://www.w3.org/1999/xlink" width="576pt" height="396pt" viewBox="0 0 576 396" xmlns="http://www.w3.org/2000/svg" version="1.1">
 <metadata>
  <rdf:RDF xmlns:dc="http://purl.org/dc/elements/1.1/" xmlns:cc="http://creativecommons.org/ns#" xmlns:rdf="http://www.w3.org/1999/02/22-rdf-syntax-ns#">
   <cc:Work>
    <dc:type rdf:resource="http://purl.org/dc/dcmitype/StillImage"/>
    <dc:date>2023-02-18T09:56:14.666442</dc:date>
    <dc:format>image/svg+xml</dc:format>
    <dc:creator>
     <cc:Agent>
      <dc:title>Matplotlib v3.5.3, https://matplotlib.org/</dc:title>
     </cc:Agent>
    </dc:creator>
   </cc:Work>
  </rdf:RDF>
 </metadata>
 <defs>
  <style type="text/css">*{stroke-linejoin: round; stroke-linecap: butt}</style>
 </defs>
 <g id="figure_1">
  <g id="patch_1">
   <path d="M 0 396 
L 576 396 
L 576 0 
L 0 0 
z
" style="fill: #ffffff"/>
  </g>
  <g id="axes_1">
   <g id="patch_2">
    <path d="M 72 352.44 
L 518.4 352.44 
L 518.4 47.52 
L 72 47.52 
z
" style="fill: #eaeaf2"/>
   </g>
   <g id="matplotlib.axis_1">
    <g id="xtick_1">
     <g id="line2d_1">
      <path d="M 164.533787 352.44 
L 164.533787 47.52 
" clip-path="url(#p5e0e87a700)" style="fill: none; stroke: #ffffff; stroke-linecap: round"/>
     </g>
     <g id="line2d_2"/>
     <g id="text_1">
      <!-- 360 -->
      <g style="fill: #262626" transform="translate(156.19238 366.597813)scale(0.1 -0.1)">
       <defs>
        <path id="ArialMT-33" d="M 269 1209 
L 831 1284 
Q 928 806 1161 595 
Q 1394 384 1728 384 
Q 2125 384 2398 659 
Q 2672 934 2672 1341 
Q 2672 1728 2419 1979 
Q 2166 2231 1775 2231 
Q 1616 2231 1378 2169 
L 1441 2663 
Q 1497 2656 1531 2656 
Q 1891 2656 2178 2843 
Q 2466 3031 2466 3422 
Q 2466 3731 2256 3934 
Q 2047 4138 1716 4138 
Q 1388 4138 1169 3931 
Q 950 3725 888 3313 
L 325 3413 
Q 428 3978 793 4289 
Q 1159 4600 1703 4600 
Q 2078 4600 2393 4439 
Q 2709 4278 2876 4000 
Q 3044 3722 3044 3409 
Q 3044 3113 2884 2869 
Q 2725 2625 2413 2481 
Q 2819 2388 3044 2092 
Q 3269 1797 3269 1353 
Q 3269 753 2831 336 
Q 2394 -81 1725 -81 
Q 1122 -81 723 278 
Q 325 638 269 1209 
z
" transform="scale(0.015625)"/>
        <path id="ArialMT-36" d="M 3184 3459 
L 2625 3416 
Q 2550 3747 2413 3897 
Q 2184 4138 1850 4138 
Q 1581 4138 1378 3988 
Q 1113 3794 959 3422 
Q 806 3050 800 2363 
Q 1003 2672 1297 2822 
Q 1591 2972 1913 2972 
Q 2475 2972 2870 2558 
Q 3266 2144 3266 1488 
Q 3266 1056 3080 686 
Q 2894 316 2569 119 
Q 2244 -78 1831 -78 
Q 1128 -78 684 439 
Q 241 956 241 2144 
Q 241 3472 731 4075 
Q 1159 4600 1884 4600 
Q 2425 4600 2770 4297 
Q 3116 3994 3184 3459 
z
M 888 1484 
Q 888 1194 1011 928 
Q 1134 663 1356 523 
Q 1578 384 1822 384 
Q 2178 384 2434 671 
Q 2691 959 2691 1453 
Q 2691 1928 2437 2201 
Q 2184 2475 1800 2475 
Q 1419 2475 1153 2201 
Q 888 1928 888 1484 
z
" transform="scale(0.015625)"/>
        <path id="ArialMT-30" d="M 266 2259 
Q 266 3072 433 3567 
Q 600 4063 929 4331 
Q 1259 4600 1759 4600 
Q 2128 4600 2406 4451 
Q 2684 4303 2865 4023 
Q 3047 3744 3150 3342 
Q 3253 2941 3253 2259 
Q 3253 1453 3087 958 
Q 2922 463 2592 192 
Q 2263 -78 1759 -78 
Q 1097 -78 719 397 
Q 266 969 266 2259 
z
M 844 2259 
Q 844 1131 1108 757 
Q 1372 384 1759 384 
Q 2147 384 2411 759 
Q 2675 1134 2675 2259 
Q 2675 3391 2411 3762 
Q 2147 4134 1753 4134 
Q 1366 4134 1134 3806 
Q 844 3388 844 2259 
z
" transform="scale(0.015625)"/>
       </defs>
       <use xlink:href="#ArialMT-33"/>
       <use xlink:href="#ArialMT-36" x="55.615234"/>
       <use xlink:href="#ArialMT-30" x="111.230469"/>
      </g>
     </g>
    </g>
    <g id="xtick_2">
     <g id="line2d_3">
      <path d="M 261.528716 352.44 
L 261.528716 47.52 
" clip-path="url(#p5e0e87a700)" style="fill: none; stroke: #ffffff; stroke-linecap: round"/>
     </g>
     <g id="line2d_4"/>
     <g id="text_2">
      <!-- 380 -->
      <g style="fill: #262626" transform="translate(253.18731 366.597813)scale(0.1 -0.1)">
       <defs>
        <path id="ArialMT-38" d="M 1131 2484 
Q 781 2613 612 2850 
Q 444 3088 444 3419 
Q 444 3919 803 4259 
Q 1163 4600 1759 4600 
Q 2359 4600 2725 4251 
Q 3091 3903 3091 3403 
Q 3091 3084 2923 2848 
Q 2756 2613 2416 2484 
Q 2838 2347 3058 2040 
Q 3278 1734 3278 1309 
Q 3278 722 2862 322 
Q 2447 -78 1769 -78 
Q 1091 -78 675 323 
Q 259 725 259 1325 
Q 259 1772 486 2073 
Q 713 2375 1131 2484 
z
M 1019 3438 
Q 1019 3113 1228 2906 
Q 1438 2700 1772 2700 
Q 2097 2700 2305 2904 
Q 2513 3109 2513 3406 
Q 2513 3716 2298 3927 
Q 2084 4138 1766 4138 
Q 1444 4138 1231 3931 
Q 1019 3725 1019 3438 
z
M 838 1322 
Q 838 1081 952 856 
Q 1066 631 1291 507 
Q 1516 384 1775 384 
Q 2178 384 2440 643 
Q 2703 903 2703 1303 
Q 2703 1709 2433 1975 
Q 2163 2241 1756 2241 
Q 1359 2241 1098 1978 
Q 838 1716 838 1322 
z
" transform="scale(0.015625)"/>
       </defs>
       <use xlink:href="#ArialMT-33"/>
       <use xlink:href="#ArialMT-38" x="55.615234"/>
       <use xlink:href="#ArialMT-30" x="111.230469"/>
      </g>
     </g>
    </g>
    <g id="xtick_3">
     <g id="line2d_5">
      <path d="M 358.523646 352.44 
L 358.523646 47.52 
" clip-path="url(#p5e0e87a700)" style="fill: none; stroke: #ffffff; stroke-linecap: round"/>
     </g>
     <g id="line2d_6"/>
     <g id="text_3">
      <!-- 400 -->
      <g style="fill: #262626" transform="translate(350.18224 366.597813)scale(0.1 -0.1)">
       <defs>
        <path id="ArialMT-34" d="M 2069 0 
L 2069 1097 
L 81 1097 
L 81 1613 
L 2172 4581 
L 2631 4581 
L 2631 1613 
L 3250 1613 
L 3250 1097 
L 2631 1097 
L 2631 0 
L 2069 0 
z
M 2069 1613 
L 2069 3678 
L 634 1613 
L 2069 1613 
z
" transform="scale(0.015625)"/>
       </defs>
       <use xlink:href="#ArialMT-34"/>
       <use xlink:href="#ArialMT-30" x="55.615234"/>
       <use xlink:href="#ArialMT-30" x="111.230469"/>
      </g>
     </g>
    </g>
    <g id="xtick_4">
     <g id="line2d_7">
      <path d="M 455.518576 352.44 
L 455.518576 47.52 
" clip-path="url(#p5e0e87a700)" style="fill: none; stroke: #ffffff; stroke-linecap: round"/>
     </g>
     <g id="line2d_8"/>
     <g id="text_4">
      <!-- 420 -->
      <g style="fill: #262626" transform="translate(447.17717 366.597813)scale(0.1 -0.1)">
       <defs>
        <path id="ArialMT-32" d="M 3222 541 
L 3222 0 
L 194 0 
Q 188 203 259 391 
Q 375 700 629 1000 
Q 884 1300 1366 1694 
Q 2113 2306 2375 2664 
Q 2638 3022 2638 3341 
Q 2638 3675 2398 3904 
Q 2159 4134 1775 4134 
Q 1369 4134 1125 3890 
Q 881 3647 878 3216 
L 300 3275 
Q 359 3922 746 4261 
Q 1134 4600 1788 4600 
Q 2447 4600 2831 4234 
Q 3216 3869 3216 3328 
Q 3216 3053 3103 2787 
Q 2991 2522 2730 2228 
Q 2469 1934 1863 1422 
Q 1356 997 1212 845 
Q 1069 694 975 541 
L 3222 541 
z
" transform="scale(0.015625)"/>
       </defs>
       <use xlink:href="#ArialMT-34"/>
       <use xlink:href="#ArialMT-32" x="55.615234"/>
       <use xlink:href="#ArialMT-30" x="111.230469"/>
      </g>
     </g>
    </g>
    <g id="text_5">
     <!-- date -->
     <g style="fill: #262626" transform="translate(284.496484 380.458906)scale(0.11 -0.11)">
      <defs>
       <path id="ArialMT-64" d="M 2575 0 
L 2575 419 
Q 2259 -75 1647 -75 
Q 1250 -75 917 144 
Q 584 363 401 755 
Q 219 1147 219 1656 
Q 219 2153 384 2558 
Q 550 2963 881 3178 
Q 1213 3394 1622 3394 
Q 1922 3394 2156 3267 
Q 2391 3141 2538 2938 
L 2538 4581 
L 3097 4581 
L 3097 0 
L 2575 0 
z
M 797 1656 
Q 797 1019 1065 703 
Q 1334 388 1700 388 
Q 2069 388 2326 689 
Q 2584 991 2584 1609 
Q 2584 2291 2321 2609 
Q 2059 2928 1675 2928 
Q 1300 2928 1048 2622 
Q 797 2316 797 1656 
z
" transform="scale(0.015625)"/>
       <path id="ArialMT-61" d="M 2588 409 
Q 2275 144 1986 34 
Q 1697 -75 1366 -75 
Q 819 -75 525 192 
Q 231 459 231 875 
Q 231 1119 342 1320 
Q 453 1522 633 1644 
Q 813 1766 1038 1828 
Q 1203 1872 1538 1913 
Q 2219 1994 2541 2106 
Q 2544 2222 2544 2253 
Q 2544 2597 2384 2738 
Q 2169 2928 1744 2928 
Q 1347 2928 1158 2789 
Q 969 2650 878 2297 
L 328 2372 
Q 403 2725 575 2942 
Q 747 3159 1072 3276 
Q 1397 3394 1825 3394 
Q 2250 3394 2515 3294 
Q 2781 3194 2906 3042 
Q 3031 2891 3081 2659 
Q 3109 2516 3109 2141 
L 3109 1391 
Q 3109 606 3145 398 
Q 3181 191 3288 0 
L 2700 0 
Q 2613 175 2588 409 
z
M 2541 1666 
Q 2234 1541 1622 1453 
Q 1275 1403 1131 1340 
Q 988 1278 909 1158 
Q 831 1038 831 891 
Q 831 666 1001 516 
Q 1172 366 1500 366 
Q 1825 366 2078 508 
Q 2331 650 2450 897 
Q 2541 1088 2541 1459 
L 2541 1666 
z
" transform="scale(0.015625)"/>
       <path id="ArialMT-74" d="M 1650 503 
L 1731 6 
Q 1494 -44 1306 -44 
Q 1000 -44 831 53 
Q 663 150 594 308 
Q 525 466 525 972 
L 525 2881 
L 113 2881 
L 113 3319 
L 525 3319 
L 525 4141 
L 1084 4478 
L 1084 3319 
L 1650 3319 
L 1650 2881 
L 1084 2881 
L 1084 941 
Q 1084 700 1114 631 
Q 1144 563 1211 522 
Q 1278 481 1403 481 
Q 1497 481 1650 503 
z
" transform="scale(0.015625)"/>
       <path id="ArialMT-65" d="M 2694 1069 
L 3275 997 
Q 3138 488 2766 206 
Q 2394 -75 1816 -75 
Q 1088 -75 661 373 
Q 234 822 234 1631 
Q 234 2469 665 2931 
Q 1097 3394 1784 3394 
Q 2450 3394 2872 2941 
Q 3294 2488 3294 1666 
Q 3294 1616 3291 1516 
L 816 1516 
Q 847 969 1125 678 
Q 1403 388 1819 388 
Q 2128 388 2347 550 
Q 2566 713 2694 1069 
z
M 847 1978 
L 2700 1978 
Q 2663 2397 2488 2606 
Q 2219 2931 1791 2931 
Q 1403 2931 1139 2672 
Q 875 2413 847 1978 
z
" transform="scale(0.015625)"/>
      </defs>
      <use xlink:href="#ArialMT-64"/>
      <use xlink:href="#ArialMT-61" x="55.615234"/>
      <use xlink:href="#ArialMT-74" x="111.230469"/>
      <use xlink:href="#ArialMT-65" x="139.013672"/>
     </g>
    </g>
   </g>
   <g id="matplotlib.axis_2">
    <g id="ytick_1">
     <g id="line2d_9">
      <path d="M 72 328.420944 
L 518.4 328.420944 
" clip-path="url(#p5e0e87a700)" style="fill: none; stroke: #ffffff; stroke-linecap: round"/>
     </g>
     <g id="line2d_10"/>
     <g id="text_6">
      <!-- 15000 -->
      <g style="fill: #262626" transform="translate(37.195312 331.99985)scale(0.1 -0.1)">
       <defs>
        <path id="ArialMT-31" d="M 2384 0 
L 1822 0 
L 1822 3584 
Q 1619 3391 1289 3197 
Q 959 3003 697 2906 
L 697 3450 
Q 1169 3672 1522 3987 
Q 1875 4303 2022 4600 
L 2384 4600 
L 2384 0 
z
" transform="scale(0.015625)"/>
        <path id="ArialMT-35" d="M 266 1200 
L 856 1250 
Q 922 819 1161 601 
Q 1400 384 1738 384 
Q 2144 384 2425 690 
Q 2706 997 2706 1503 
Q 2706 1984 2436 2262 
Q 2166 2541 1728 2541 
Q 1456 2541 1237 2417 
Q 1019 2294 894 2097 
L 366 2166 
L 809 4519 
L 3088 4519 
L 3088 3981 
L 1259 3981 
L 1013 2750 
Q 1425 3038 1878 3038 
Q 2478 3038 2890 2622 
Q 3303 2206 3303 1553 
Q 3303 931 2941 478 
Q 2500 -78 1738 -78 
Q 1113 -78 717 272 
Q 322 622 266 1200 
z
" transform="scale(0.015625)"/>
       </defs>
       <use xlink:href="#ArialMT-31"/>
       <use xlink:href="#ArialMT-35" x="55.615234"/>
       <use xlink:href="#ArialMT-30" x="111.230469"/>
       <use xlink:href="#ArialMT-30" x="166.845703"/>
       <use xlink:href="#ArialMT-30" x="222.460938"/>
      </g>
     </g>
    </g>
    <g id="ytick_2">
     <g id="line2d_11">
      <path d="M 72 285.971187 
L 518.4 285.971187 
" clip-path="url(#p5e0e87a700)" style="fill: none; stroke: #ffffff; stroke-linecap: round"/>
     </g>
     <g id="line2d_12"/>
     <g id="text_7">
      <!-- 20000 -->
      <g style="fill: #262626" transform="translate(37.195312 289.550094)scale(0.1 -0.1)">
       <use xlink:href="#ArialMT-32"/>
       <use xlink:href="#ArialMT-30" x="55.615234"/>
       <use xlink:href="#ArialMT-30" x="111.230469"/>
       <use xlink:href="#ArialMT-30" x="166.845703"/>
       <use xlink:href="#ArialMT-30" x="222.460938"/>
      </g>
     </g>
    </g>
    <g id="ytick_3">
     <g id="line2d_13">
      <path d="M 72 243.52143 
L 518.4 243.52143 
" clip-path="url(#p5e0e87a700)" style="fill: none; stroke: #ffffff; stroke-linecap: round"/>
     </g>
     <g id="line2d_14"/>
     <g id="text_8">
      <!-- 25000 -->
      <g style="fill: #262626" transform="translate(37.195312 247.100337)scale(0.1 -0.1)">
       <use xlink:href="#ArialMT-32"/>
       <use xlink:href="#ArialMT-35" x="55.615234"/>
       <use xlink:href="#ArialMT-30" x="111.230469"/>
       <use xlink:href="#ArialMT-30" x="166.845703"/>
       <use xlink:href="#ArialMT-30" x="222.460938"/>
      </g>
     </g>
    </g>
    <g id="ytick_4">
     <g id="line2d_15">
      <path d="M 72 201.071673 
L 518.4 201.071673 
" clip-path="url(#p5e0e87a700)" style="fill: none; stroke: #ffffff; stroke-linecap: round"/>
     </g>
     <g id="line2d_16"/>
     <g id="text_9">
      <!-- 30000 -->
      <g style="fill: #262626" transform="translate(37.195312 204.65058)scale(0.1 -0.1)">
       <use xlink:href="#ArialMT-33"/>
       <use xlink:href="#ArialMT-30" x="55.615234"/>
       <use xlink:href="#ArialMT-30" x="111.230469"/>
       <use xlink:href="#ArialMT-30" x="166.845703"/>
       <use xlink:href="#ArialMT-30" x="222.460938"/>
      </g>
     </g>
    </g>
    <g id="ytick_5">
     <g id="line2d_17">
      <path d="M 72 158.621917 
L 518.4 158.621917 
" clip-path="url(#p5e0e87a700)" style="fill: none; stroke: #ffffff; stroke-linecap: round"/>
     </g>
     <g id="line2d_18"/>
     <g id="text_10">
      <!-- 35000 -->
      <g style="fill: #262626" transform="translate(37.195312 162.200823)scale(0.1 -0.1)">
       <use xlink:href="#ArialMT-33"/>
       <use xlink:href="#ArialMT-35" x="55.615234"/>
       <use xlink:href="#ArialMT-30" x="111.230469"/>
       <use xlink:href="#ArialMT-30" x="166.845703"/>
       <use xlink:href="#ArialMT-30" x="222.460938"/>
      </g>
     </g>
    </g>
    <g id="ytick_6">
     <g id="line2d_19">
      <path d="M 72 116.17216 
L 518.4 116.17216 
" clip-path="url(#p5e0e87a700)" style="fill: none; stroke: #ffffff; stroke-linecap: round"/>
     </g>
     <g id="line2d_20"/>
     <g id="text_11">
      <!-- 40000 -->
      <g style="fill: #262626" transform="translate(37.195312 119.751066)scale(0.1 -0.1)">
       <use xlink:href="#ArialMT-34"/>
       <use xlink:href="#ArialMT-30" x="55.615234"/>
       <use xlink:href="#ArialMT-30" x="111.230469"/>
       <use xlink:href="#ArialMT-30" x="166.845703"/>
       <use xlink:href="#ArialMT-30" x="222.460938"/>
      </g>
     </g>
    </g>
    <g id="ytick_7">
     <g id="line2d_21">
      <path d="M 72 73.722403 
L 518.4 73.722403 
" clip-path="url(#p5e0e87a700)" style="fill: none; stroke: #ffffff; stroke-linecap: round"/>
     </g>
     <g id="line2d_22"/>
     <g id="text_12">
      <!-- 45000 -->
      <g style="fill: #262626" transform="translate(37.195312 77.301309)scale(0.1 -0.1)">
       <use xlink:href="#ArialMT-34"/>
       <use xlink:href="#ArialMT-35" x="55.615234"/>
       <use xlink:href="#ArialMT-30" x="111.230469"/>
       <use xlink:href="#ArialMT-30" x="166.845703"/>
       <use xlink:href="#ArialMT-30" x="222.460938"/>
      </g>
     </g>
    </g>
    <g id="text_13">
     <!-- number -->
     <g style="fill: #262626" transform="translate(31.009062 218.626719)rotate(-90)scale(0.11 -0.11)">
      <defs>
       <path id="ArialMT-6e" d="M 422 0 
L 422 3319 
L 928 3319 
L 928 2847 
Q 1294 3394 1984 3394 
Q 2284 3394 2536 3286 
Q 2788 3178 2913 3003 
Q 3038 2828 3088 2588 
Q 3119 2431 3119 2041 
L 3119 0 
L 2556 0 
L 2556 2019 
Q 2556 2363 2490 2533 
Q 2425 2703 2258 2804 
Q 2091 2906 1866 2906 
Q 1506 2906 1245 2678 
Q 984 2450 984 1813 
L 984 0 
L 422 0 
z
" transform="scale(0.015625)"/>
       <path id="ArialMT-75" d="M 2597 0 
L 2597 488 
Q 2209 -75 1544 -75 
Q 1250 -75 995 37 
Q 741 150 617 320 
Q 494 491 444 738 
Q 409 903 409 1263 
L 409 3319 
L 972 3319 
L 972 1478 
Q 972 1038 1006 884 
Q 1059 663 1231 536 
Q 1403 409 1656 409 
Q 1909 409 2131 539 
Q 2353 669 2445 892 
Q 2538 1116 2538 1541 
L 2538 3319 
L 3100 3319 
L 3100 0 
L 2597 0 
z
" transform="scale(0.015625)"/>
       <path id="ArialMT-6d" d="M 422 0 
L 422 3319 
L 925 3319 
L 925 2853 
Q 1081 3097 1340 3245 
Q 1600 3394 1931 3394 
Q 2300 3394 2536 3241 
Q 2772 3088 2869 2813 
Q 3263 3394 3894 3394 
Q 4388 3394 4653 3120 
Q 4919 2847 4919 2278 
L 4919 0 
L 4359 0 
L 4359 2091 
Q 4359 2428 4304 2576 
Q 4250 2725 4106 2815 
Q 3963 2906 3769 2906 
Q 3419 2906 3187 2673 
Q 2956 2441 2956 1928 
L 2956 0 
L 2394 0 
L 2394 2156 
Q 2394 2531 2256 2718 
Q 2119 2906 1806 2906 
Q 1569 2906 1367 2781 
Q 1166 2656 1075 2415 
Q 984 2175 984 1722 
L 984 0 
L 422 0 
z
" transform="scale(0.015625)"/>
       <path id="ArialMT-62" d="M 941 0 
L 419 0 
L 419 4581 
L 981 4581 
L 981 2947 
Q 1338 3394 1891 3394 
Q 2197 3394 2470 3270 
Q 2744 3147 2920 2923 
Q 3097 2700 3197 2384 
Q 3297 2069 3297 1709 
Q 3297 856 2875 390 
Q 2453 -75 1863 -75 
Q 1275 -75 941 416 
L 941 0 
z
M 934 1684 
Q 934 1088 1097 822 
Q 1363 388 1816 388 
Q 2184 388 2453 708 
Q 2722 1028 2722 1663 
Q 2722 2313 2464 2622 
Q 2206 2931 1841 2931 
Q 1472 2931 1203 2611 
Q 934 2291 934 1684 
z
" transform="scale(0.015625)"/>
       <path id="ArialMT-72" d="M 416 0 
L 416 3319 
L 922 3319 
L 922 2816 
Q 1116 3169 1280 3281 
Q 1444 3394 1641 3394 
Q 1925 3394 2219 3213 
L 2025 2691 
Q 1819 2813 1613 2813 
Q 1428 2813 1281 2702 
Q 1134 2591 1072 2394 
Q 978 2094 978 1738 
L 978 0 
L 416 0 
z
" transform="scale(0.015625)"/>
      </defs>
      <use xlink:href="#ArialMT-6e"/>
      <use xlink:href="#ArialMT-75" x="55.615234"/>
      <use xlink:href="#ArialMT-6d" x="111.230469"/>
      <use xlink:href="#ArialMT-62" x="194.53125"/>
      <use xlink:href="#ArialMT-65" x="250.146484"/>
      <use xlink:href="#ArialMT-72" x="305.761719"/>
     </g>
    </g>
   </g>
   <g id="PolyCollection_1">
    <path d="M -1581.374949 -228.774565 
L -1581.374949 -405.985321 
L -1576.525203 -405.985321 
L -1571.675457 -405.985321 
L -1566.82571 -850.663504 
L -1561.975964 -850.663504 
L -1557.126217 -850.663504 
L -1552.276471 -1292.140976 
L -1547.426724 -1292.140976 
L -1542.576978 -1292.140976 
L -1537.727231 -1430.671513 
L -1532.877485 -1430.671513 
L -1528.027738 -1430.671513 
L -1523.177992 -1926.696923 
L -1518.328245 -1926.696923 
L -1513.478499 -1926.696923 
L -1508.628752 -1835.913873 
L -1503.779006 -1835.913873 
L -1498.929259 -1835.913873 
L -1494.079513 -2361.569213 
L -1489.229766 -2361.569213 
L -1484.38002 -2361.569213 
L -1479.530273 -2203.452358 
L -1474.680527 -2203.452358 
L -1469.83078 -2203.452358 
L -1464.981034 -2616.811111 
L -1460.131287 -2616.811111 
L -1455.281541 -2616.811111 
L -1450.431794 -2597.887009 
L -1445.582048 -2597.887009 
L -1440.732301 -2597.887009 
L -1435.882555 -2398.857079 
L -1431.032808 -2398.857079 
L -1426.183062 -2398.857079 
L -1421.333315 -2136.82322 
L -1416.483569 -2136.82322 
L -1411.633822 -2136.82322 
L -1406.784076 -1899.945086 
L -1401.934329 -1899.945086 
L -1397.084583 -1899.945086 
L -1392.234836 -2447.818629 
L -1387.38509 -2447.818629 
L -1382.535343 -2447.818629 
L -1377.685597 -1941.17229 
L -1372.83585 -1941.17229 
L -1367.986104 -1941.17229 
L -1363.136357 -2145.177332 
L -1358.286611 -2145.177332 
L -1353.436865 -2145.177332 
L -1348.587118 -1716.867774 
L -1343.737372 -1716.867774 
L -1338.887625 -1716.867774 
L -1334.037879 -1676.005638 
L -1329.188132 -1676.005638 
L -1324.338386 -1676.005638 
L -1319.488639 -1728.728236 
L -1314.638893 -1728.728236 
L -1309.789146 -1728.728236 
L -1304.9394 -1496.027159 
L -1300.089653 -1496.027159 
L -1295.239907 -1496.027159 
L -1290.39016 -1317.64479 
L -1285.540414 -1317.64479 
L -1280.690667 -1317.64479 
L -1275.840921 -1465.921791 
L -1270.991174 -1465.921791 
L -1266.141428 -1465.921791 
L -1261.291681 -1393.816634 
L -1256.441935 -1393.816634 
L -1251.592188 -1393.816634 
L -1246.742442 -1070.977743 
L -1241.892695 -1070.977743 
L -1237.042949 -1070.977743 
L -1232.193202 -1018.390984 
L -1227.343456 -1018.390984 
L -1222.493709 -1018.390984 
L -1217.643963 -979.591906 
L -1212.794216 -979.591906 
L -1207.94447 -979.591906 
L -1203.094723 -1018.900381 
L -1198.244977 -1018.900381 
L -1193.39523 -1018.900381 
L -1188.545484 -886.822207 
L -1183.695737 -886.822207 
L -1178.845991 -886.822207 
L -1173.996244 -860.842956 
L -1169.146498 -860.842956 
L -1164.296751 -860.842956 
L -1159.447005 -644.960472 
L -1154.597258 -644.960472 
L -1149.747512 -644.960472 
L -1144.897765 -742.654343 
L -1140.048019 -742.654343 
L -1135.198272 -742.654343 
L -1130.348526 -616.009738 
L -1125.49878 -616.009738 
L -1120.649033 -616.009738 
L -1115.799287 -647.847056 
L -1110.94954 -647.847056 
L -1106.099794 -647.847056 
L -1101.250047 -498.355992 
L -1096.400301 -498.355992 
L -1091.550554 -498.355992 
L -1086.700808 -468.777001 
L -1081.851061 -468.777001 
L -1077.001315 -468.777001 
L -1072.151568 -556.503669 
L -1067.301822 -556.503669 
L -1062.452075 -556.503669 
L -1057.602329 -419.99374 
L -1052.752582 -419.99374 
L -1047.902836 -419.99374 
L -1043.053089 -449.70008 
L -1038.203343 -449.70008 
L -1033.353596 -449.70008 
L -1028.50385 -356.234205 
L -1023.654103 -356.234205 
L -1018.804357 -356.234205 
L -1013.95461 -459.022047 
L -1009.104864 -459.022047 
L -1004.255117 -459.022047 
L -999.405371 -299.258142 
L -994.555624 -299.258142 
L -989.705878 -299.258142 
L -984.856131 -218.722463 
L -980.006385 -218.722463 
L -975.156638 -218.722463 
L -970.306892 -202.922663 
L -965.457145 -202.922663 
L -960.607399 -202.922663 
L -955.757652 -171.917361 
L -950.907906 -171.917361 
L -946.058159 -171.917361 
L -941.208413 -146.337137 
L -936.358666 -146.337137 
L -931.50892 -146.337137 
L -926.659173 -120.773894 
L -921.809427 -120.773894 
L -916.95968 -120.773894 
L -912.109934 -86.279221 
L -907.260188 -86.279221 
L -902.410441 -86.279221 
L -897.560695 -61.853631 
L -892.710948 -61.853631 
L -887.861202 -61.853631 
L -883.011455 -81.142801 
L -878.161709 -81.142801 
L -873.311962 -81.142801 
L -868.462216 -99.735794 
L -863.612469 -99.735794 
L -858.762723 -99.735794 
L -853.912976 -62.337558 
L -849.06323 -62.337558 
L -844.213483 -62.337558 
L -839.363737 -53.796667 
L -834.51399 -53.796667 
L -829.664244 -53.796667 
L -824.814497 -53.35519 
L -819.964751 -53.35519 
L -815.115004 -53.35519 
L -810.265258 -19.573673 
L -805.415511 -19.573673 
L -800.565765 -19.573673 
L -795.716018 -14.225004 
L -790.866272 -14.225004 
L -786.016525 -14.225004 
L -781.166779 2.899228 
L -776.317032 2.899228 
L -771.467286 2.899228 
L -766.617539 26.034346 
L -761.767793 26.034346 
L -756.918046 26.034346 
L -752.0683 48.371408 
L -747.218553 48.371408 
L -742.368807 48.371408 
L -737.51906 54.636992 
L -732.669314 54.636992 
L -727.819567 54.636992 
L -722.969821 77.305162 
L -718.120074 77.305162 
L -713.270328 77.305162 
L -708.420581 53.821957 
L -703.570835 53.821957 
L -698.721088 53.821957 
L -693.871342 55.944444 
L -689.021596 55.944444 
L -684.171849 55.944444 
L -679.322103 57.506595 
L -674.472356 57.506595 
L -669.62261 57.506595 
L -664.772863 119.474751 
L -659.923117 119.474751 
L -655.07337 119.474751 
L -650.223624 94.319025 
L -645.373877 94.319025 
L -640.524131 94.319025 
L -635.674384 89.8618 
L -630.824638 89.8618 
L -625.974891 89.8618 
L -621.125145 117.75978 
L -616.275398 117.75978 
L -611.425652 117.75978 
L -606.575905 110.653691 
L -601.726159 110.653691 
L -596.876412 110.653691 
L -592.026666 122.539623 
L -587.176919 122.539623 
L -582.327173 122.539623 
L -577.477426 129.917391 
L -572.62768 129.917391 
L -567.777933 129.917391 
L -562.928187 126.012013 
L -558.07844 126.012013 
L -553.228694 126.012013 
L -548.378947 136.089586 
L -543.529201 136.089586 
L -538.679454 136.089586 
L -533.829708 139.086538 
L -528.979961 139.086538 
L -524.130215 139.086538 
L -519.280468 155.429695 
L -514.430722 155.429695 
L -509.580975 155.429695 
L -504.731229 151.702606 
L -499.881482 151.702606 
L -495.031736 151.702606 
L -490.181989 131.072024 
L -485.332243 131.072024 
L -480.482496 131.072024 
L -475.63275 143.874871 
L -470.783003 143.874871 
L -465.933257 143.874871 
L -461.083511 161.033063 
L -456.233764 161.033063 
L -451.384018 161.033063 
L -446.534271 155.709863 
L -441.684525 155.709863 
L -436.834778 155.709863 
L -431.985032 152.475192 
L -427.135285 152.475192 
L -422.285539 152.475192 
L -417.435792 177.860146 
L -412.586046 177.860146 
L -407.736299 177.860146 
L -402.886553 182.631499 
L -398.036806 182.631499 
L -393.18706 182.631499 
L -388.337313 207.549506 
L -383.487567 207.549506 
L -378.63782 207.549506 
L -373.788074 172.681276 
L -368.938327 172.681276 
L -364.088581 172.681276 
L -359.238834 139.018619 
L -354.389088 139.018619 
L -349.539341 139.018619 
L -344.689595 158.197419 
L -339.839848 158.197419 
L -334.990102 158.197419 
L -330.140355 163.24894 
L -325.290609 163.24894 
L -320.440862 163.24894 
L -315.591116 186.587816 
L -310.741369 186.587816 
L -305.891623 186.587816 
L -301.041876 189.567789 
L -296.19213 189.567789 
L -291.342383 189.567789 
L -286.492637 181.646665 
L -281.64289 181.646665 
L -276.793144 181.646665 
L -271.943397 179.660016 
L -267.093651 179.660016 
L -262.243904 179.660016 
L -257.394158 209.340886 
L -252.544411 209.340886 
L -247.694665 209.340886 
L -242.844919 208.279642 
L -237.995172 208.279642 
L -233.145426 208.279642 
L -228.295679 197.650223 
L -223.445933 197.650223 
L -218.596186 197.650223 
L -213.74644 190.297925 
L -208.896693 190.297925 
L -204.046947 190.297925 
L -199.1972 211.760522 
L -194.347454 211.760522 
L -189.497707 211.760522 
L -184.647961 207.192928 
L -179.798214 207.192928 
L -174.948468 207.192928 
L -170.098721 200.536806 
L -165.248975 200.536806 
L -160.399228 200.536806 
L -155.549482 218.858122 
L -150.699735 218.858122 
L -145.849989 218.858122 
L -141.000242 220.85326 
L -136.150496 220.85326 
L -131.300749 220.85326 
L -126.451003 203.253591 
L -121.601256 203.253591 
L -116.75151 203.253591 
L -111.901763 192.004405 
L -107.052017 192.004405 
L -102.20227 192.004405 
L -97.352524 209.697464 
L -92.502777 209.697464 
L -87.653031 209.697464 
L -82.803284 230.480865 
L -77.953538 230.480865 
L -73.103791 230.480865 
L -68.254045 222.508801 
L -63.404298 222.508801 
L -58.554552 222.508801 
L -53.704805 207.795715 
L -48.855059 207.795715 
L -44.005312 207.795715 
L -39.155566 222.831419 
L -34.305819 222.831419 
L -29.456073 222.831419 
L -24.606326 220.556112 
L -19.75658 220.556112 
L -14.906834 220.556112 
L -10.057087 234.598491 
L -5.207341 234.598491 
L -0.357594 234.598491 
L 4.492152 246.526873 
L 9.341899 246.526873 
L 14.191645 246.526873 
L 19.041392 238.622728 
L 23.891138 238.622728 
L 28.740885 238.622728 
L 33.590631 244.378915 
L 38.440378 244.378915 
L 43.290124 244.378915 
L 48.139871 255.067764 
L 52.989617 255.067764 
L 57.839364 255.067764 
L 62.68911 251.153897 
L 67.538857 251.153897 
L 72.388603 251.153897 
L 77.23835 261.749356 
L 82.088096 261.749356 
L 86.937843 261.749356 
L 91.787589 234.946579 
L 96.637336 234.946579 
L 101.487082 234.946579 
L 106.336829 267.463093 
L 111.186575 267.463093 
L 116.036322 260.034386 
L 120.886068 255.305483 
L 125.735815 250.754869 
L 130.585561 246.093886 
L 135.435308 241.398943 
L 140.285054 236.814369 
L 145.134801 232.450534 
L 149.984547 228.375357 
L 154.834294 224.605819 
L 159.68404 221.141919 
L 164.533787 217.958187 
L 169.383533 215.046133 
L 174.23328 212.371799 
L 179.083026 209.918203 
L 183.932773 207.659876 
L 188.782519 205.588328 
L 193.632266 203.678089 
L 198.482012 201.920669 
L 203.331758 200.307578 
L 208.181505 198.821836 
L 213.031251 197.446464 
L 217.880998 196.181461 
L 222.730744 195.018338 
L 227.580491 193.940114 
L 232.430237 192.94679 
L 237.279984 192.029875 
L 242.12973 191.18088 
L 246.979477 190.399805 
L 251.829223 189.678159 
L 256.67897 189.007453 
L 261.528716 188.387686 
L 266.378463 187.818859 
L 271.228209 187.292482 
L 276.077956 186.808555 
L 280.927702 186.358588 
L 285.777449 185.94258 
L 290.627195 185.560532 
L 295.476942 185.203954 
L 300.326688 184.872846 
L 305.176435 184.567208 
L 310.026181 184.28704 
L 314.875928 184.032341 
L 319.725674 183.794622 
L 324.575421 183.573884 
L 329.425167 183.370125 
L 334.274914 183.183346 
L 339.12466 183.005057 
L 343.974407 182.843748 
L 348.824153 182.690929 
L 353.6739 182.555089 
L 358.523646 182.42774 
L 363.373393 182.308881 
L 368.223139 182.198512 
L 373.072886 182.096632 
L 377.922632 182.003243 
L 382.772379 181.918343 
L 387.622125 181.833444 
L 392.471872 181.757034 
L 397.321618 181.689114 
L 402.171365 181.621195 
L 407.021111 181.561765 
L 411.870858 181.510825 
L 416.720604 181.459886 
L 421.57035 181.408946 
L 426.420097 181.366496 
L 431.269843 181.324047 
L 436.11959 181.290087 
L 440.969336 181.256127 
L 445.819083 181.222167 
L 450.668829 181.196697 
L 455.518576 181.171227 
L 460.368322 181.145758 
L 465.218069 181.120288 
L 470.067815 181.094818 
L 474.917562 181.077838 
L 479.767308 181.060858 
L 484.617055 181.043878 
L 489.466801 181.026898 
L 489.466801 265.799063 
L 489.466801 265.799063 
L 484.617055 265.858492 
L 479.767308 265.926412 
L 474.917562 265.994332 
L 470.067815 266.062251 
L 465.218069 266.130171 
L 460.368322 266.198091 
L 455.518576 266.2745 
L 450.668829 266.35091 
L 445.819083 266.427319 
L 440.969336 266.503729 
L 436.11959 266.580138 
L 431.269843 266.665038 
L 426.420097 266.749937 
L 421.57035 266.834837 
L 416.720604 266.919736 
L 411.870858 267.013126 
L 407.021111 267.106515 
L 402.171365 267.199905 
L 397.321618 267.293294 
L 392.471872 267.395174 
L 387.622125 267.497053 
L 382.772379 267.598932 
L 377.922632 267.709302 
L 373.072886 267.819671 
L 368.223139 267.930041 
L 363.373393 268.0489 
L 358.523646 268.167759 
L 353.6739 268.286619 
L 348.824153 268.413968 
L 343.974407 268.541317 
L 339.12466 268.677156 
L 334.274914 268.812996 
L 329.425167 268.948835 
L 324.575421 269.093164 
L 319.725674 269.237493 
L 314.875928 269.390312 
L 310.026181 269.543131 
L 305.176435 269.69595 
L 300.326688 269.85726 
L 295.476942 270.027059 
L 290.627195 270.196858 
L 285.777449 270.366657 
L 280.927702 270.544946 
L 276.077956 270.731725 
L 271.228209 270.918503 
L 266.378463 271.113772 
L 261.528716 271.309041 
L 256.67897 271.5128 
L 251.829223 271.716559 
L 246.979477 271.928808 
L 242.12973 272.149546 
L 237.279984 272.370285 
L 232.430237 272.599514 
L 227.580491 272.837232 
L 222.730744 273.074951 
L 217.880998 273.32116 
L 213.031251 273.575858 
L 208.181505 273.839047 
L 203.331758 274.110725 
L 198.482012 274.382404 
L 193.632266 274.662572 
L 188.782519 274.95123 
L 183.932773 275.248379 
L 179.083026 275.545527 
L 174.23328 275.851165 
L 169.383533 276.165293 
L 164.533787 276.487912 
L 159.68404 276.81053 
L 154.834294 277.133148 
L 149.984547 277.455766 
L 145.134801 277.778384 
L 140.285054 278.092512 
L 135.435308 278.389661 
L 130.585561 278.669829 
L 125.735815 278.933018 
L 120.886068 279.128286 
L 116.036322 279.425435 
L 111.186575 281.811111 
L 106.336829 281.811111 
L 101.487082 267.581953 
L 96.637336 267.581953 
L 91.787589 267.581953 
L 86.937843 267.497053 
L 82.088096 267.497053 
L 77.23835 267.497053 
L 72.388603 278.975467 
L 67.538857 278.975467 
L 62.68911 278.975467 
L 57.839364 276.148314 
L 52.989617 276.148314 
L 48.139871 276.148314 
L 43.290124 275.791736 
L 38.440378 275.791736 
L 33.590631 275.791736 
L 28.740885 259.202371 
L 23.891138 259.202371 
L 19.041392 259.202371 
L 14.191645 263.659595 
L 9.341899 263.659595 
L 4.492152 263.659595 
L -0.357594 254.227259 
L -5.207341 254.227259 
L -10.057087 254.227259 
L -14.906834 250.338861 
L -19.75658 250.338861 
L -24.606326 250.338861 
L -29.456073 249.566276 
L -34.305819 249.566276 
L -39.155566 249.566276 
L -44.005312 245.652408 
L -48.855059 245.652408 
L -53.704805 245.652408 
L -58.554552 238.631218 
L -63.404298 238.631218 
L -68.254045 238.631218 
L -73.103791 246.408014 
L -77.953538 246.408014 
L -82.803284 246.408014 
L -87.653031 235.090909 
L -92.502777 235.090909 
L -97.352524 235.090909 
L -102.20227 234.216444 
L -107.052017 234.216444 
L -111.901763 234.216444 
L -116.75151 223.739844 
L -121.601256 223.739844 
L -126.451003 223.739844 
L -131.300749 230.803483 
L -136.150496 230.803483 
L -141.000242 230.803483 
L -145.849989 246.306134 
L -150.699735 246.306134 
L -155.549482 246.306134 
L -160.399228 221.371147 
L -165.248975 221.371147 
L -170.098721 221.371147 
L -174.948468 210.011592 
L -179.798214 210.011592 
L -184.647961 210.011592 
L -189.497707 215.317812 
L -194.347454 215.317812 
L -199.1972 215.317812 
L -204.046947 212.855726 
L -208.896693 212.855726 
L -213.74644 212.855726 
L -218.596186 224.869007 
L -223.445933 224.869007 
L -228.295679 224.869007 
L -233.145426 227.577302 
L -237.995172 227.577302 
L -242.844919 227.577302 
L -247.694665 227.348073 
L -252.544411 227.348073 
L -257.394158 227.348073 
L -262.243904 193.133569 
L -267.093651 193.133569 
L -271.943397 193.133569 
L -276.793144 216.336606 
L -281.64289 216.336606 
L -286.492637 216.336606 
L -291.342383 197.021967 
L -296.19213 197.021967 
L -301.041876 197.021967 
L -305.891623 209.612565 
L -310.741369 209.612565 
L -315.591116 209.612565 
L -320.440862 188.260337 
L -325.290609 188.260337 
L -330.140355 188.260337 
L -334.990102 190.230006 
L -339.839848 190.230006 
L -344.689595 190.230006 
L -349.539341 174.735844 
L -354.389088 174.735844 
L -359.238834 174.735844 
L -364.088581 205.342119 
L -368.938327 205.342119 
L -373.788074 205.342119 
L -378.63782 219.010941 
L -383.487567 219.010941 
L -388.337313 219.010941 
L -393.18706 192.649642 
L -398.036806 192.649642 
L -402.886553 192.649642 
L -407.736299 183.938952 
L -412.586046 183.938952 
L -417.435792 183.938952 
L -422.285539 190.960141 
L -427.135285 190.960141 
L -431.985032 190.960141 
L -436.834778 169.998451 
L -441.684525 169.998451 
L -446.534271 169.998451 
L -451.384018 199.254824 
L -456.233764 199.254824 
L -461.083511 199.254824 
L -465.933257 170.940836 
L -470.783003 170.940836 
L -475.63275 170.940836 
L -480.482496 153.383616 
L -485.332243 153.383616 
L -490.181989 153.383616 
L -495.031736 167.409016 
L -499.881482 167.409016 
L -504.731229 167.409016 
L -509.580975 187.046274 
L -514.430722 187.046274 
L -519.280468 187.046274 
L -524.130215 165.430858 
L -528.979961 165.430858 
L -533.829708 165.430858 
L -538.679454 154.241102 
L -543.529201 154.241102 
L -548.378947 154.241102 
L -553.228694 148.238706 
L -558.07844 148.238706 
L -562.928187 148.238706 
L -567.777933 159.394502 
L -572.62768 159.394502 
L -577.477426 159.394502 
L -582.327173 144.511617 
L -587.176919 144.511617 
L -592.026666 144.511617 
L -596.876412 134.926462 
L -601.726159 134.926462 
L -606.575905 134.926462 
L -611.425652 123.210329 
L -616.275398 123.210329 
L -621.125145 123.210329 
L -625.974891 143.603193 
L -630.824638 143.603193 
L -635.674384 143.603193 
L -640.524131 118.999313 
L -645.373877 118.999313 
L -650.223624 118.999313 
L -655.07337 126.62329 
L -659.923117 126.62329 
L -664.772863 126.62329 
L -669.62261 111.511176 
L -674.472356 111.511176 
L -679.322103 111.511176 
L -684.171849 111.545136 
L -689.021596 111.545136 
L -693.871342 111.545136 
L -698.721088 92.349356 
L -703.570835 92.349356 
L -708.420581 92.349356 
L -713.270328 112.046043 
L -718.120074 112.046043 
L -722.969821 112.046043 
L -727.819567 101.187395 
L -732.669314 101.187395 
L -737.51906 101.187395 
L -742.368807 68.246384 
L -747.218553 68.246384 
L -752.0683 68.246384 
L -756.918046 64.476846 
L -761.767793 64.476846 
L -766.617539 64.476846 
L -771.467286 51.266481 
L -776.317032 51.266481 
L -781.166779 51.266481 
L -786.016525 55.00206 
L -790.866272 55.00206 
L -795.716018 55.00206 
L -800.565765 2.152112 
L -805.415511 2.152112 
L -810.265258 2.152112 
L -815.115004 -1.006149 
L -819.964751 -1.006149 
L -824.814497 -1.006149 
L -829.664244 14.649321 
L -834.51399 14.649321 
L -839.363737 14.649321 
L -844.213483 -40.705162 
L -849.06323 -40.705162 
L -853.912976 -40.705162 
L -858.762723 -25.932647 
L -863.612469 -25.932647 
L -868.462216 -25.932647 
L -873.311962 -64.477026 
L -878.161709 -64.477026 
L -883.011455 -64.477026 
L -887.861202 -26.790132 
L -892.710948 -26.790132 
L -897.560695 -26.790132 
L -902.410441 -76.745006 
L -907.260188 -76.745006 
L -912.109934 -76.745006 
L -916.95968 -82.322904 
L -921.809427 -82.322904 
L -926.659173 -82.322904 
L -931.50892 -111.477397 
L -936.358666 -111.477397 
L -941.208413 -111.477397 
L -946.058159 -124.509472 
L -950.907906 -124.509472 
L -955.757652 -124.509472 
L -960.607399 -114.032872 
L -965.457145 -114.032872 
L -970.306892 -114.032872 
L -975.156638 -175.984048 
L -980.006385 -175.984048 
L -984.856131 -175.984048 
L -989.705878 -159.90408 
L -994.555624 -159.90408 
L -999.405371 -159.90408 
L -1004.255117 -191.945156 
L -1009.104864 -191.945156 
L -1013.95461 -191.945156 
L -1018.804357 -203.54243 
L -1023.654103 -203.54243 
L -1028.50385 -203.54243 
L -1033.353596 -206.369584 
L -1038.203343 -206.369584 
L -1043.053089 -206.369584 
L -1047.902836 -321.467854 
L -1052.752582 -321.467854 
L -1057.602329 -321.467854 
L -1062.452075 -355.546519 
L -1067.301822 -355.546519 
L -1072.151568 -355.546519 
L -1077.001315 -375.862973 
L -1081.851061 -375.862973 
L -1086.700808 -375.862973 
L -1091.550554 -449.946289 
L -1096.400301 -449.946289 
L -1101.250047 -449.946289 
L -1106.099794 -507.39779 
L -1110.94954 -507.39779 
L -1115.799287 -507.39779 
L -1120.649033 -476.664166 
L -1125.49878 -476.664166 
L -1130.348526 -476.664166 
L -1135.198272 -544.01495 
L -1140.048019 -544.01495 
L -1144.897765 -544.01495 
L -1149.747512 -544.821496 
L -1154.597258 -544.821496 
L -1159.447005 -544.821496 
L -1164.296751 -601.500411 
L -1169.146498 -601.500411 
L -1173.996244 -601.500411 
L -1178.845991 -692.232521 
L -1183.695737 -692.232521 
L -1188.545484 -692.232521 
L -1193.39523 -813.536947 
L -1198.244977 -813.536947 
L -1203.094723 -813.536947 
L -1207.94447 -819.395013 
L -1212.794216 -819.395013 
L -1217.643963 -819.395013 
L -1222.493709 -860.06188 
L -1227.343456 -860.06188 
L -1232.193202 -860.06188 
L -1237.042949 -871.302576 
L -1241.892695 -871.302576 
L -1246.742442 -871.302576 
L -1251.592188 -1118.317712 
L -1256.441935 -1118.317712 
L -1261.291681 -1118.317712 
L -1266.141428 -1067.632702 
L -1270.991174 -1067.632702 
L -1275.840921 -1067.632702 
L -1280.690667 -1257.493485 
L -1285.540414 -1257.493485 
L -1290.39016 -1257.493485 
L -1295.239907 -1400.090708 
L -1300.089653 -1400.090708 
L -1304.9394 -1400.090708 
L -1309.789146 -1273.887581 
L -1314.638893 -1273.887581 
L -1319.488639 -1273.887581 
L -1324.338386 -1582.981241 
L -1329.188132 -1582.981241 
L -1334.037879 -1582.981241 
L -1338.887625 -1652.819581 
L -1343.737372 -1652.819581 
L -1348.587118 -1652.819581 
L -1353.436865 -1900.836531 
L -1358.286611 -1900.836531 
L -1363.136357 -1900.836531 
L -1367.986104 -1796.087511 
L -1372.83585 -1796.087511 
L -1377.685597 -1796.087511 
L -1382.535343 -1987.943432 
L -1387.38509 -1987.943432 
L -1392.234836 -1987.943432 
L -1397.084583 -1764.530361 
L -1401.934329 -1764.530361 
L -1406.784076 -1764.530361 
L -1411.633822 -1911.44897 
L -1416.483569 -1911.44897 
L -1421.333315 -1911.44897 
L -1426.183062 -1991.271493 
L -1431.032808 -1991.271493 
L -1435.882555 -1991.271493 
L -1440.732301 -2258.450263 
L -1445.582048 -2258.450263 
L -1450.431794 -2258.450263 
L -1455.281541 -2441.969052 
L -1460.131287 -2441.969052 
L -1464.981034 -2441.969052 
L -1469.83078 -2046.108089 
L -1474.680527 -2046.108089 
L -1479.530273 -2046.108089 
L -1484.38002 -1890.886308 
L -1489.229766 -1890.886308 
L -1494.079513 -1890.886308 
L -1498.929259 -1594.459655 
L -1503.779006 -1594.459655 
L -1508.628752 -1594.459655 
L -1513.478499 -1615.472285 
L -1518.328245 -1615.472285 
L -1523.177992 -1615.472285 
L -1528.027738 -1323.800005 
L -1532.877485 -1323.800005 
L -1537.727231 -1323.800005 
L -1542.576978 -671.067073 
L -1547.426724 -671.067073 
L -1552.276471 -671.067073 
L -1557.126217 -453.792237 
L -1561.975964 -453.792237 
L -1566.82571 -453.792237 
L -1571.675457 -228.774565 
L -1576.525203 -228.774565 
L -1581.374949 -228.774565 
z
" clip-path="url(#p5e0e87a700)" style="fill: #ff0000; fill-opacity: 0.1"/>
   </g>
   <g id="line2d_23">
    <path d="M -1 234.598491 
L -0.357594 234.598491 
L 4.492152 246.526873 
L 14.191645 246.526873 
L 19.041392 238.622728 
L 28.740885 238.622728 
L 33.590631 244.378915 
L 43.290124 244.378915 
L 48.139871 255.067764 
L 57.839364 255.067764 
L 62.68911 251.153897 
L 72.388603 251.153897 
L 77.23835 261.749356 
L 86.937843 261.749356 
L 91.787589 234.946579 
L 101.487082 234.946579 
L 106.336829 267.463093 
L 111.186575 267.463093 
L 116.036322 260.034386 
L 120.886068 255.305483 
L 130.585561 246.093886 
L 140.285054 236.814369 
L 145.134801 232.450534 
L 149.984547 228.375357 
L 154.834294 224.605819 
L 159.68404 221.141919 
L 164.533787 217.958187 
L 169.383533 215.046133 
L 174.23328 212.371799 
L 179.083026 209.918203 
L 183.932773 207.659876 
L 188.782519 205.588328 
L 193.632266 203.678089 
L 198.482012 201.920669 
L 203.331758 200.307578 
L 213.031251 197.446464 
L 222.730744 195.018338 
L 232.430237 192.94679 
L 242.12973 191.18088 
L 251.829223 189.678159 
L 261.528716 188.387686 
L 271.228209 187.292482 
L 285.777449 185.94258 
L 300.326688 184.872846 
L 314.875928 184.032341 
L 334.274914 183.183346 
L 353.6739 182.555089 
L 377.922632 182.003243 
L 411.870858 181.510825 
L 450.668829 181.196697 
L 489.466801 181.026898 
L 489.466801 181.026898 
" clip-path="url(#p5e0e87a700)" style="fill: none; stroke: #0000ff; stroke-width: 1.75; stroke-linecap: round"/>
   </g>
   <g id="line2d_24">
    <path d="M -1 254.227259 
L -0.357594 254.227259 
L 4.492152 263.659595 
L 14.191645 263.659595 
L 19.041392 259.202371 
L 28.740885 259.202371 
L 33.590631 275.791736 
L 43.290124 275.791736 
L 48.139871 276.148314 
L 57.839364 276.148314 
L 62.68911 278.975467 
L 72.388603 278.975467 
L 77.23835 267.497053 
L 101.487082 267.581953 
L 106.336829 281.811111 
L 111.186575 281.811111 
L 116.036322 279.425435 
L 125.735815 278.933018 
L 145.134801 277.778384 
L 193.632266 274.662572 
L 222.730744 273.074951 
L 256.67897 271.5128 
L 290.627195 270.196858 
L 329.425167 268.948835 
L 373.072886 267.819671 
L 416.720604 266.919736 
L 479.767308 265.926412 
L 489.466801 265.799063 
L 489.466801 265.799063 
" clip-path="url(#p5e0e87a700)" style="fill: none; stroke: #008000; stroke-width: 1.75; stroke-linecap: round"/>
   </g>
   <g id="line2d_25">
    <path d="M -1 251.627198 
L -0.357594 254.227259 
L 9.341899 263.659595 
L 14.191645 246.526873 
L 19.041392 253.089606 
L 23.891138 238.622728 
L 28.740885 259.202371 
L 33.590631 256.179948 
L 38.440378 244.378915 
L 43.290124 275.791736 
L 48.139871 255.067764 
L 52.989617 276.148314 
L 57.839364 269.441252 
L 62.68911 261.579557 
L 67.538857 251.153897 
L 72.388603 278.975467 
L 77.23835 267.497053 
L 82.088096 261.749356 
L 86.937843 266.138661 
L 91.787589 267.581953 
L 96.637336 234.946579 
L 101.487082 250.848258 
L 106.336829 267.463093 
L 111.186575 281.811111 
L 116.036322 263.583185 
L 120.886068 262.657781 
L 125.735815 261.146569 
L 135.435308 258.735423 
L 149.984547 255.407362 
L 164.533787 252.334 
L 179.083026 249.506846 
L 193.632266 246.908921 
L 208.181505 244.514755 
L 227.580491 241.602701 
L 246.979477 238.987796 
L 266.378463 236.63608 
L 285.777449 234.513592 
L 310.026181 232.161875 
L 334.274914 230.090327 
L 358.523646 228.264988 
L 387.622125 226.363239 
L 416.720604 224.733168 
L 450.668829 223.111587 
L 479.767308 221.931484 
L 489.466801 221.574906 
L 489.466801 221.574906 
" clip-path="url(#p5e0e87a700)" style="fill: none; stroke: #000000; stroke-width: 1.75; stroke-linecap: round"/>
   </g>
   <g id="patch_3">
    <path d="M 72 352.44 
L 72 47.52 
" style="fill: none"/>
   </g>
   <g id="patch_4">
    <path d="M 518.4 352.44 
L 518.4 47.52 
" style="fill: none"/>
   </g>
   <g id="patch_5">
    <path d="M 72 352.44 
L 518.4 352.44 
" style="fill: none"/>
   </g>
   <g id="patch_6">
    <path d="M 72 47.52 
L 518.4 47.52 
" style="fill: none"/>
   </g>
   <g id="text_14">
    <!-- number prediction -->
    <g style="fill: #262626" transform="translate(247.1775 41.52)scale(0.12 -0.12)">
     <defs>
      <path id="ArialMT-20" transform="scale(0.015625)"/>
      <path id="ArialMT-70" d="M 422 -1272 
L 422 3319 
L 934 3319 
L 934 2888 
Q 1116 3141 1344 3267 
Q 1572 3394 1897 3394 
Q 2322 3394 2647 3175 
Q 2972 2956 3137 2557 
Q 3303 2159 3303 1684 
Q 3303 1175 3120 767 
Q 2938 359 2589 142 
Q 2241 -75 1856 -75 
Q 1575 -75 1351 44 
Q 1128 163 984 344 
L 984 -1272 
L 422 -1272 
z
M 931 1641 
Q 931 1000 1190 694 
Q 1450 388 1819 388 
Q 2194 388 2461 705 
Q 2728 1022 2728 1688 
Q 2728 2322 2467 2637 
Q 2206 2953 1844 2953 
Q 1484 2953 1207 2617 
Q 931 2281 931 1641 
z
" transform="scale(0.015625)"/>
      <path id="ArialMT-69" d="M 425 3934 
L 425 4581 
L 988 4581 
L 988 3934 
L 425 3934 
z
M 425 0 
L 425 3319 
L 988 3319 
L 988 0 
L 425 0 
z
" transform="scale(0.015625)"/>
      <path id="ArialMT-63" d="M 2588 1216 
L 3141 1144 
Q 3050 572 2676 248 
Q 2303 -75 1759 -75 
Q 1078 -75 664 370 
Q 250 816 250 1647 
Q 250 2184 428 2587 
Q 606 2991 970 3192 
Q 1334 3394 1763 3394 
Q 2303 3394 2647 3120 
Q 2991 2847 3088 2344 
L 2541 2259 
Q 2463 2594 2264 2762 
Q 2066 2931 1784 2931 
Q 1359 2931 1093 2626 
Q 828 2322 828 1663 
Q 828 994 1084 691 
Q 1341 388 1753 388 
Q 2084 388 2306 591 
Q 2528 794 2588 1216 
z
" transform="scale(0.015625)"/>
      <path id="ArialMT-6f" d="M 213 1659 
Q 213 2581 725 3025 
Q 1153 3394 1769 3394 
Q 2453 3394 2887 2945 
Q 3322 2497 3322 1706 
Q 3322 1066 3130 698 
Q 2938 331 2570 128 
Q 2203 -75 1769 -75 
Q 1072 -75 642 372 
Q 213 819 213 1659 
z
M 791 1659 
Q 791 1022 1069 705 
Q 1347 388 1769 388 
Q 2188 388 2466 706 
Q 2744 1025 2744 1678 
Q 2744 2294 2464 2611 
Q 2184 2928 1769 2928 
Q 1347 2928 1069 2612 
Q 791 2297 791 1659 
z
" transform="scale(0.015625)"/>
     </defs>
     <use xlink:href="#ArialMT-6e"/>
     <use xlink:href="#ArialMT-75" x="55.615234"/>
     <use xlink:href="#ArialMT-6d" x="111.230469"/>
     <use xlink:href="#ArialMT-62" x="194.53125"/>
     <use xlink:href="#ArialMT-65" x="250.146484"/>
     <use xlink:href="#ArialMT-72" x="305.761719"/>
     <use xlink:href="#ArialMT-20" x="339.0625"/>
     <use xlink:href="#ArialMT-70" x="366.845703"/>
     <use xlink:href="#ArialMT-72" x="422.460938"/>
     <use xlink:href="#ArialMT-65" x="455.761719"/>
     <use xlink:href="#ArialMT-64" x="511.376953"/>
     <use xlink:href="#ArialMT-69" x="566.992188"/>
     <use xlink:href="#ArialMT-63" x="589.208984"/>
     <use xlink:href="#ArialMT-74" x="639.208984"/>
     <use xlink:href="#ArialMT-69" x="666.992188"/>
     <use xlink:href="#ArialMT-6f" x="689.208984"/>
     <use xlink:href="#ArialMT-6e" x="744.824219"/>
    </g>
   </g>
   <g id="legend_1">
    <g id="line2d_26">
     <path d="M 442.496875 60.177813 
L 452.496875 60.177813 
L 462.496875 60.177813 
" style="fill: none; stroke: #0000ff; stroke-width: 1.75; stroke-linecap: round"/>
    </g>
    <g id="text_15">
     <!-- max_pre -->
     <g style="fill: #262626" transform="translate(470.496875 63.677813)scale(0.1 -0.1)">
      <defs>
       <path id="ArialMT-78" d="M 47 0 
L 1259 1725 
L 138 3319 
L 841 3319 
L 1350 2541 
Q 1494 2319 1581 2169 
Q 1719 2375 1834 2534 
L 2394 3319 
L 3066 3319 
L 1919 1756 
L 3153 0 
L 2463 0 
L 1781 1031 
L 1600 1309 
L 728 0 
L 47 0 
z
" transform="scale(0.015625)"/>
       <path id="ArialMT-5f" d="M -97 -1272 
L -97 -866 
L 3631 -866 
L 3631 -1272 
L -97 -1272 
z
" transform="scale(0.015625)"/>
      </defs>
      <use xlink:href="#ArialMT-6d"/>
      <use xlink:href="#ArialMT-61" x="83.300781"/>
      <use xlink:href="#ArialMT-78" x="138.916016"/>
      <use xlink:href="#ArialMT-5f" x="188.916016"/>
      <use xlink:href="#ArialMT-70" x="244.53125"/>
      <use xlink:href="#ArialMT-72" x="300.146484"/>
      <use xlink:href="#ArialMT-65" x="333.447266"/>
     </g>
    </g>
    <g id="line2d_27">
     <path d="M 442.496875 74.323125 
L 452.496875 74.323125 
L 462.496875 74.323125 
" style="fill: none; stroke: #008000; stroke-width: 1.75; stroke-linecap: round"/>
    </g>
    <g id="text_16">
     <!-- min_pre -->
     <g style="fill: #262626" transform="translate(470.496875 77.823125)scale(0.1 -0.1)">
      <use xlink:href="#ArialMT-6d"/>
      <use xlink:href="#ArialMT-69" x="83.300781"/>
      <use xlink:href="#ArialMT-6e" x="105.517578"/>
      <use xlink:href="#ArialMT-5f" x="161.132812"/>
      <use xlink:href="#ArialMT-70" x="216.748047"/>
      <use xlink:href="#ArialMT-72" x="272.363281"/>
      <use xlink:href="#ArialMT-65" x="305.664062"/>
     </g>
    </g>
    <g id="line2d_28">
     <path d="M 442.496875 88.468437 
L 452.496875 88.468437 
L 462.496875 88.468437 
" style="fill: none; stroke: #000000; stroke-width: 1.75; stroke-linecap: round"/>
    </g>
    <g id="text_17">
     <!-- pre -->
     <g style="fill: #262626" transform="translate(470.496875 91.968437)scale(0.1 -0.1)">
      <use xlink:href="#ArialMT-70"/>
      <use xlink:href="#ArialMT-72" x="55.615234"/>
      <use xlink:href="#ArialMT-65" x="88.916016"/>
     </g>
    </g>
   </g>
  </g>
 </g>
 <defs>
  <clipPath id="p5e0e87a700">
   <rect x="72" y="47.52" width="446.4" height="304.92"/>
  </clipPath>
 </defs>
</svg>
