<?xml version="1.0" encoding="utf-8" standalone="no"?>
<!DOCTYPE svg PUBLIC "-//W3C//DTD SVG 1.1//EN"
  "http://www.w3.org/Graphics/SVG/1.1/DTD/svg11.dtd">
<svg xmlns:xlink="http://www.w3.org/1999/xlink" width="576pt" height="396pt" viewBox="0 0 576 396" xmlns="http://www.w3.org/2000/svg" version="1.1">
 <metadata>
  <rdf:RDF xmlns:dc="http://purl.org/dc/elements/1.1/" xmlns:cc="http://creativecommons.org/ns#" xmlns:rdf="http://www.w3.org/1999/02/22-rdf-syntax-ns#">
   <cc:Work>
    <dc:type rdf:resource="http://purl.org/dc/dcmitype/StillImage"/>
    <dc:date>2023-02-18T20:23:54.053979</dc:date>
    <dc:format>image/svg+xml</dc:format>
    <dc:creator>
     <cc:Agent>
      <dc:title>Matplotlib v3.5.3, https://matplotlib.org/</dc:title>
     </cc:Agent>
    </dc:creator>
   </cc:Work>
  </rdf:RDF>
 </metadata>
 <defs>
  <style type="text/css">*{stroke-linejoin: round; stroke-linecap: butt}</style>
 </defs>
 <g id="figure_1">
  <g id="patch_1">
   <path d="M 0 396 
L 576 396 
L 576 0 
L 0 0 
z
" style="fill: #ffffff"/>
  </g>
  <g id="axes_1">
   <g id="patch_2">
    <path d="M 72 352.44 
L 518.4 352.44 
L 518.4 47.52 
L 72 47.52 
z
" style="fill: #eaeaf2"/>
   </g>
   <g id="matplotlib.axis_1">
    <g id="xtick_1">
     <g id="line2d_1">
      <path d="M 92.290909 352.44 
L 92.290909 47.52 
" clip-path="url(#p50cd7fee3e)" style="fill: none; stroke: #ffffff; stroke-linecap: round"/>
     </g>
     <g id="line2d_2"/>
     <g id="text_1">
      <!-- 0 -->
      <g style="fill: #262626" transform="translate(89.51044 366.597813)scale(0.1 -0.1)">
       <defs>
        <path id="ArialMT-30" d="M 266 2259 
Q 266 3072 433 3567 
Q 600 4063 929 4331 
Q 1259 4600 1759 4600 
Q 2128 4600 2406 4451 
Q 2684 4303 2865 4023 
Q 3047 3744 3150 3342 
Q 3253 2941 3253 2259 
Q 3253 1453 3087 958 
Q 2922 463 2592 192 
Q 2263 -78 1759 -78 
Q 1097 -78 719 397 
Q 266 969 266 2259 
z
M 844 2259 
Q 844 1131 1108 757 
Q 1372 384 1759 384 
Q 2147 384 2411 759 
Q 2675 1134 2675 2259 
Q 2675 3391 2411 3762 
Q 2147 4134 1753 4134 
Q 1366 4134 1134 3806 
Q 844 3388 844 2259 
z
" transform="scale(0.015625)"/>
       </defs>
       <use xlink:href="#ArialMT-30"/>
      </g>
     </g>
    </g>
    <g id="xtick_2">
     <g id="line2d_3">
      <path d="M 187.330296 352.44 
L 187.330296 47.52 
" clip-path="url(#p50cd7fee3e)" style="fill: none; stroke: #ffffff; stroke-linecap: round"/>
     </g>
     <g id="line2d_4"/>
     <g id="text_2">
      <!-- 100 -->
      <g style="fill: #262626" transform="translate(178.98889 366.597813)scale(0.1 -0.1)">
       <defs>
        <path id="ArialMT-31" d="M 2384 0 
L 1822 0 
L 1822 3584 
Q 1619 3391 1289 3197 
Q 959 3003 697 2906 
L 697 3450 
Q 1169 3672 1522 3987 
Q 1875 4303 2022 4600 
L 2384 4600 
L 2384 0 
z
" transform="scale(0.015625)"/>
       </defs>
       <use xlink:href="#ArialMT-31"/>
       <use xlink:href="#ArialMT-30" x="55.615234"/>
       <use xlink:href="#ArialMT-30" x="111.230469"/>
      </g>
     </g>
    </g>
    <g id="xtick_3">
     <g id="line2d_5">
      <path d="M 282.369683 352.44 
L 282.369683 47.52 
" clip-path="url(#p50cd7fee3e)" style="fill: none; stroke: #ffffff; stroke-linecap: round"/>
     </g>
     <g id="line2d_6"/>
     <g id="text_3">
      <!-- 200 -->
      <g style="fill: #262626" transform="translate(274.028277 366.597813)scale(0.1 -0.1)">
       <defs>
        <path id="ArialMT-32" d="M 3222 541 
L 3222 0 
L 194 0 
Q 188 203 259 391 
Q 375 700 629 1000 
Q 884 1300 1366 1694 
Q 2113 2306 2375 2664 
Q 2638 3022 2638 3341 
Q 2638 3675 2398 3904 
Q 2159 4134 1775 4134 
Q 1369 4134 1125 3890 
Q 881 3647 878 3216 
L 300 3275 
Q 359 3922 746 4261 
Q 1134 4600 1788 4600 
Q 2447 4600 2831 4234 
Q 3216 3869 3216 3328 
Q 3216 3053 3103 2787 
Q 2991 2522 2730 2228 
Q 2469 1934 1863 1422 
Q 1356 997 1212 845 
Q 1069 694 975 541 
L 3222 541 
z
" transform="scale(0.015625)"/>
       </defs>
       <use xlink:href="#ArialMT-32"/>
       <use xlink:href="#ArialMT-30" x="55.615234"/>
       <use xlink:href="#ArialMT-30" x="111.230469"/>
      </g>
     </g>
    </g>
    <g id="xtick_4">
     <g id="line2d_7">
      <path d="M 377.40907 352.44 
L 377.40907 47.52 
" clip-path="url(#p50cd7fee3e)" style="fill: none; stroke: #ffffff; stroke-linecap: round"/>
     </g>
     <g id="line2d_8"/>
     <g id="text_4">
      <!-- 300 -->
      <g style="fill: #262626" transform="translate(369.067663 366.597813)scale(0.1 -0.1)">
       <defs>
        <path id="ArialMT-33" d="M 269 1209 
L 831 1284 
Q 928 806 1161 595 
Q 1394 384 1728 384 
Q 2125 384 2398 659 
Q 2672 934 2672 1341 
Q 2672 1728 2419 1979 
Q 2166 2231 1775 2231 
Q 1616 2231 1378 2169 
L 1441 2663 
Q 1497 2656 1531 2656 
Q 1891 2656 2178 2843 
Q 2466 3031 2466 3422 
Q 2466 3731 2256 3934 
Q 2047 4138 1716 4138 
Q 1388 4138 1169 3931 
Q 950 3725 888 3313 
L 325 3413 
Q 428 3978 793 4289 
Q 1159 4600 1703 4600 
Q 2078 4600 2393 4439 
Q 2709 4278 2876 4000 
Q 3044 3722 3044 3409 
Q 3044 3113 2884 2869 
Q 2725 2625 2413 2481 
Q 2819 2388 3044 2092 
Q 3269 1797 3269 1353 
Q 3269 753 2831 336 
Q 2394 -81 1725 -81 
Q 1122 -81 723 278 
Q 325 638 269 1209 
z
" transform="scale(0.015625)"/>
       </defs>
       <use xlink:href="#ArialMT-33"/>
       <use xlink:href="#ArialMT-30" x="55.615234"/>
       <use xlink:href="#ArialMT-30" x="111.230469"/>
      </g>
     </g>
    </g>
    <g id="xtick_5">
     <g id="line2d_9">
      <path d="M 472.448456 352.44 
L 472.448456 47.52 
" clip-path="url(#p50cd7fee3e)" style="fill: none; stroke: #ffffff; stroke-linecap: round"/>
     </g>
     <g id="line2d_10"/>
     <g id="text_5">
      <!-- 400 -->
      <g style="fill: #262626" transform="translate(464.10705 366.597813)scale(0.1 -0.1)">
       <defs>
        <path id="ArialMT-34" d="M 2069 0 
L 2069 1097 
L 81 1097 
L 81 1613 
L 2172 4581 
L 2631 4581 
L 2631 1613 
L 3250 1613 
L 3250 1097 
L 2631 1097 
L 2631 0 
L 2069 0 
z
M 2069 1613 
L 2069 3678 
L 634 1613 
L 2069 1613 
z
" transform="scale(0.015625)"/>
       </defs>
       <use xlink:href="#ArialMT-34"/>
       <use xlink:href="#ArialMT-30" x="55.615234"/>
       <use xlink:href="#ArialMT-30" x="111.230469"/>
      </g>
     </g>
    </g>
    <g id="text_6">
     <!-- date -->
     <g style="fill: #262626" transform="translate(284.496484 380.458906)scale(0.11 -0.11)">
      <defs>
       <path id="ArialMT-64" d="M 2575 0 
L 2575 419 
Q 2259 -75 1647 -75 
Q 1250 -75 917 144 
Q 584 363 401 755 
Q 219 1147 219 1656 
Q 219 2153 384 2558 
Q 550 2963 881 3178 
Q 1213 3394 1622 3394 
Q 1922 3394 2156 3267 
Q 2391 3141 2538 2938 
L 2538 4581 
L 3097 4581 
L 3097 0 
L 2575 0 
z
M 797 1656 
Q 797 1019 1065 703 
Q 1334 388 1700 388 
Q 2069 388 2326 689 
Q 2584 991 2584 1609 
Q 2584 2291 2321 2609 
Q 2059 2928 1675 2928 
Q 1300 2928 1048 2622 
Q 797 2316 797 1656 
z
" transform="scale(0.015625)"/>
       <path id="ArialMT-61" d="M 2588 409 
Q 2275 144 1986 34 
Q 1697 -75 1366 -75 
Q 819 -75 525 192 
Q 231 459 231 875 
Q 231 1119 342 1320 
Q 453 1522 633 1644 
Q 813 1766 1038 1828 
Q 1203 1872 1538 1913 
Q 2219 1994 2541 2106 
Q 2544 2222 2544 2253 
Q 2544 2597 2384 2738 
Q 2169 2928 1744 2928 
Q 1347 2928 1158 2789 
Q 969 2650 878 2297 
L 328 2372 
Q 403 2725 575 2942 
Q 747 3159 1072 3276 
Q 1397 3394 1825 3394 
Q 2250 3394 2515 3294 
Q 2781 3194 2906 3042 
Q 3031 2891 3081 2659 
Q 3109 2516 3109 2141 
L 3109 1391 
Q 3109 606 3145 398 
Q 3181 191 3288 0 
L 2700 0 
Q 2613 175 2588 409 
z
M 2541 1666 
Q 2234 1541 1622 1453 
Q 1275 1403 1131 1340 
Q 988 1278 909 1158 
Q 831 1038 831 891 
Q 831 666 1001 516 
Q 1172 366 1500 366 
Q 1825 366 2078 508 
Q 2331 650 2450 897 
Q 2541 1088 2541 1459 
L 2541 1666 
z
" transform="scale(0.015625)"/>
       <path id="ArialMT-74" d="M 1650 503 
L 1731 6 
Q 1494 -44 1306 -44 
Q 1000 -44 831 53 
Q 663 150 594 308 
Q 525 466 525 972 
L 525 2881 
L 113 2881 
L 113 3319 
L 525 3319 
L 525 4141 
L 1084 4478 
L 1084 3319 
L 1650 3319 
L 1650 2881 
L 1084 2881 
L 1084 941 
Q 1084 700 1114 631 
Q 1144 563 1211 522 
Q 1278 481 1403 481 
Q 1497 481 1650 503 
z
" transform="scale(0.015625)"/>
       <path id="ArialMT-65" d="M 2694 1069 
L 3275 997 
Q 3138 488 2766 206 
Q 2394 -75 1816 -75 
Q 1088 -75 661 373 
Q 234 822 234 1631 
Q 234 2469 665 2931 
Q 1097 3394 1784 3394 
Q 2450 3394 2872 2941 
Q 3294 2488 3294 1666 
Q 3294 1616 3291 1516 
L 816 1516 
Q 847 969 1125 678 
Q 1403 388 1819 388 
Q 2128 388 2347 550 
Q 2566 713 2694 1069 
z
M 847 1978 
L 2700 1978 
Q 2663 2397 2488 2606 
Q 2219 2931 1791 2931 
Q 1403 2931 1139 2672 
Q 875 2413 847 1978 
z
" transform="scale(0.015625)"/>
      </defs>
      <use xlink:href="#ArialMT-64"/>
      <use xlink:href="#ArialMT-61" x="55.615234"/>
      <use xlink:href="#ArialMT-74" x="111.230469"/>
      <use xlink:href="#ArialMT-65" x="139.013672"/>
     </g>
    </g>
   </g>
   <g id="matplotlib.axis_2">
    <g id="ytick_1">
     <g id="line2d_11">
      <path d="M 72 342.587578 
L 518.4 342.587578 
" clip-path="url(#p50cd7fee3e)" style="fill: none; stroke: #ffffff; stroke-linecap: round"/>
     </g>
     <g id="line2d_12"/>
     <g id="text_7">
      <!-- 0.0 -->
      <g style="fill: #262626" transform="translate(51.1 346.166484)scale(0.1 -0.1)">
       <defs>
        <path id="ArialMT-2e" d="M 581 0 
L 581 641 
L 1222 641 
L 1222 0 
L 581 0 
z
" transform="scale(0.015625)"/>
       </defs>
       <use xlink:href="#ArialMT-30"/>
       <use xlink:href="#ArialMT-2e" x="55.615234"/>
       <use xlink:href="#ArialMT-30" x="83.398438"/>
      </g>
     </g>
    </g>
    <g id="ytick_2">
     <g id="line2d_13">
      <path d="M 72 286.346062 
L 518.4 286.346062 
" clip-path="url(#p50cd7fee3e)" style="fill: none; stroke: #ffffff; stroke-linecap: round"/>
     </g>
     <g id="line2d_14"/>
     <g id="text_8">
      <!-- 0.2 -->
      <g style="fill: #262626" transform="translate(51.1 289.924968)scale(0.1 -0.1)">
       <use xlink:href="#ArialMT-30"/>
       <use xlink:href="#ArialMT-2e" x="55.615234"/>
       <use xlink:href="#ArialMT-32" x="83.398438"/>
      </g>
     </g>
    </g>
    <g id="ytick_3">
     <g id="line2d_15">
      <path d="M 72 230.104547 
L 518.4 230.104547 
" clip-path="url(#p50cd7fee3e)" style="fill: none; stroke: #ffffff; stroke-linecap: round"/>
     </g>
     <g id="line2d_16"/>
     <g id="text_9">
      <!-- 0.4 -->
      <g style="fill: #262626" transform="translate(51.1 233.683453)scale(0.1 -0.1)">
       <use xlink:href="#ArialMT-30"/>
       <use xlink:href="#ArialMT-2e" x="55.615234"/>
       <use xlink:href="#ArialMT-34" x="83.398438"/>
      </g>
     </g>
    </g>
    <g id="ytick_4">
     <g id="line2d_17">
      <path d="M 72 173.863031 
L 518.4 173.863031 
" clip-path="url(#p50cd7fee3e)" style="fill: none; stroke: #ffffff; stroke-linecap: round"/>
     </g>
     <g id="line2d_18"/>
     <g id="text_10">
      <!-- 0.6 -->
      <g style="fill: #262626" transform="translate(51.1 177.441937)scale(0.1 -0.1)">
       <defs>
        <path id="ArialMT-36" d="M 3184 3459 
L 2625 3416 
Q 2550 3747 2413 3897 
Q 2184 4138 1850 4138 
Q 1581 4138 1378 3988 
Q 1113 3794 959 3422 
Q 806 3050 800 2363 
Q 1003 2672 1297 2822 
Q 1591 2972 1913 2972 
Q 2475 2972 2870 2558 
Q 3266 2144 3266 1488 
Q 3266 1056 3080 686 
Q 2894 316 2569 119 
Q 2244 -78 1831 -78 
Q 1128 -78 684 439 
Q 241 956 241 2144 
Q 241 3472 731 4075 
Q 1159 4600 1884 4600 
Q 2425 4600 2770 4297 
Q 3116 3994 3184 3459 
z
M 888 1484 
Q 888 1194 1011 928 
Q 1134 663 1356 523 
Q 1578 384 1822 384 
Q 2178 384 2434 671 
Q 2691 959 2691 1453 
Q 2691 1928 2437 2201 
Q 2184 2475 1800 2475 
Q 1419 2475 1153 2201 
Q 888 1928 888 1484 
z
" transform="scale(0.015625)"/>
       </defs>
       <use xlink:href="#ArialMT-30"/>
       <use xlink:href="#ArialMT-2e" x="55.615234"/>
       <use xlink:href="#ArialMT-36" x="83.398438"/>
      </g>
     </g>
    </g>
    <g id="ytick_5">
     <g id="line2d_19">
      <path d="M 72 117.621516 
L 518.4 117.621516 
" clip-path="url(#p50cd7fee3e)" style="fill: none; stroke: #ffffff; stroke-linecap: round"/>
     </g>
     <g id="line2d_20"/>
     <g id="text_11">
      <!-- 0.8 -->
      <g style="fill: #262626" transform="translate(51.1 121.200422)scale(0.1 -0.1)">
       <defs>
        <path id="ArialMT-38" d="M 1131 2484 
Q 781 2613 612 2850 
Q 444 3088 444 3419 
Q 444 3919 803 4259 
Q 1163 4600 1759 4600 
Q 2359 4600 2725 4251 
Q 3091 3903 3091 3403 
Q 3091 3084 2923 2848 
Q 2756 2613 2416 2484 
Q 2838 2347 3058 2040 
Q 3278 1734 3278 1309 
Q 3278 722 2862 322 
Q 2447 -78 1769 -78 
Q 1091 -78 675 323 
Q 259 725 259 1325 
Q 259 1772 486 2073 
Q 713 2375 1131 2484 
z
M 1019 3438 
Q 1019 3113 1228 2906 
Q 1438 2700 1772 2700 
Q 2097 2700 2305 2904 
Q 2513 3109 2513 3406 
Q 2513 3716 2298 3927 
Q 2084 4138 1766 4138 
Q 1444 4138 1231 3931 
Q 1019 3725 1019 3438 
z
M 838 1322 
Q 838 1081 952 856 
Q 1066 631 1291 507 
Q 1516 384 1775 384 
Q 2178 384 2440 643 
Q 2703 903 2703 1303 
Q 2703 1709 2433 1975 
Q 2163 2241 1756 2241 
Q 1359 2241 1098 1978 
Q 838 1716 838 1322 
z
" transform="scale(0.015625)"/>
       </defs>
       <use xlink:href="#ArialMT-30"/>
       <use xlink:href="#ArialMT-2e" x="55.615234"/>
       <use xlink:href="#ArialMT-38" x="83.398438"/>
      </g>
     </g>
    </g>
    <g id="ytick_6">
     <g id="line2d_21">
      <path d="M 72 61.38 
L 518.4 61.38 
" clip-path="url(#p50cd7fee3e)" style="fill: none; stroke: #ffffff; stroke-linecap: round"/>
     </g>
     <g id="line2d_22"/>
     <g id="text_12">
      <!-- 1.0 -->
      <g style="fill: #262626" transform="translate(51.1 64.958906)scale(0.1 -0.1)">
       <use xlink:href="#ArialMT-31"/>
       <use xlink:href="#ArialMT-2e" x="55.615234"/>
       <use xlink:href="#ArialMT-30" x="83.398438"/>
      </g>
     </g>
    </g>
    <g id="text_13">
     <!-- number -->
     <g style="fill: #262626" transform="translate(44.91375 218.626719)rotate(-90)scale(0.11 -0.11)">
      <defs>
       <path id="ArialMT-6e" d="M 422 0 
L 422 3319 
L 928 3319 
L 928 2847 
Q 1294 3394 1984 3394 
Q 2284 3394 2536 3286 
Q 2788 3178 2913 3003 
Q 3038 2828 3088 2588 
Q 3119 2431 3119 2041 
L 3119 0 
L 2556 0 
L 2556 2019 
Q 2556 2363 2490 2533 
Q 2425 2703 2258 2804 
Q 2091 2906 1866 2906 
Q 1506 2906 1245 2678 
Q 984 2450 984 1813 
L 984 0 
L 422 0 
z
" transform="scale(0.015625)"/>
       <path id="ArialMT-75" d="M 2597 0 
L 2597 488 
Q 2209 -75 1544 -75 
Q 1250 -75 995 37 
Q 741 150 617 320 
Q 494 491 444 738 
Q 409 903 409 1263 
L 409 3319 
L 972 3319 
L 972 1478 
Q 972 1038 1006 884 
Q 1059 663 1231 536 
Q 1403 409 1656 409 
Q 1909 409 2131 539 
Q 2353 669 2445 892 
Q 2538 1116 2538 1541 
L 2538 3319 
L 3100 3319 
L 3100 0 
L 2597 0 
z
" transform="scale(0.015625)"/>
       <path id="ArialMT-6d" d="M 422 0 
L 422 3319 
L 925 3319 
L 925 2853 
Q 1081 3097 1340 3245 
Q 1600 3394 1931 3394 
Q 2300 3394 2536 3241 
Q 2772 3088 2869 2813 
Q 3263 3394 3894 3394 
Q 4388 3394 4653 3120 
Q 4919 2847 4919 2278 
L 4919 0 
L 4359 0 
L 4359 2091 
Q 4359 2428 4304 2576 
Q 4250 2725 4106 2815 
Q 3963 2906 3769 2906 
Q 3419 2906 3187 2673 
Q 2956 2441 2956 1928 
L 2956 0 
L 2394 0 
L 2394 2156 
Q 2394 2531 2256 2718 
Q 2119 2906 1806 2906 
Q 1569 2906 1367 2781 
Q 1166 2656 1075 2415 
Q 984 2175 984 1722 
L 984 0 
L 422 0 
z
" transform="scale(0.015625)"/>
       <path id="ArialMT-62" d="M 941 0 
L 419 0 
L 419 4581 
L 981 4581 
L 981 2947 
Q 1338 3394 1891 3394 
Q 2197 3394 2470 3270 
Q 2744 3147 2920 2923 
Q 3097 2700 3197 2384 
Q 3297 2069 3297 1709 
Q 3297 856 2875 390 
Q 2453 -75 1863 -75 
Q 1275 -75 941 416 
L 941 0 
z
M 934 1684 
Q 934 1088 1097 822 
Q 1363 388 1816 388 
Q 2184 388 2453 708 
Q 2722 1028 2722 1663 
Q 2722 2313 2464 2622 
Q 2206 2931 1841 2931 
Q 1472 2931 1203 2611 
Q 934 2291 934 1684 
z
" transform="scale(0.015625)"/>
       <path id="ArialMT-72" d="M 416 0 
L 416 3319 
L 922 3319 
L 922 2816 
Q 1116 3169 1280 3281 
Q 1444 3394 1641 3394 
Q 1925 3394 2219 3213 
L 2025 2691 
Q 1819 2813 1613 2813 
Q 1428 2813 1281 2702 
Q 1134 2591 1072 2394 
Q 978 2094 978 1738 
L 978 0 
L 416 0 
z
" transform="scale(0.015625)"/>
      </defs>
      <use xlink:href="#ArialMT-6e"/>
      <use xlink:href="#ArialMT-75" x="55.615234"/>
      <use xlink:href="#ArialMT-6d" x="111.230469"/>
      <use xlink:href="#ArialMT-62" x="194.53125"/>
      <use xlink:href="#ArialMT-65" x="250.146484"/>
      <use xlink:href="#ArialMT-72" x="305.761719"/>
     </g>
    </g>
   </g>
   <g id="PolyCollection_1">
    <path d="M 92.290909 289.751854 
L 92.290909 272.804899 
L 93.241303 272.804899 
L 94.191697 272.804899 
L 95.142091 230.279594 
L 96.092485 230.279594 
L 97.042878 230.279594 
L 97.993272 188.060379 
L 98.943666 188.060379 
L 99.89406 188.060379 
L 100.844454 174.812476 
L 101.794848 174.812476 
L 102.745242 174.812476 
L 103.695636 127.376752 
L 104.646029 127.376752 
L 105.596423 127.376752 
L 106.546817 136.058484 
L 107.497211 136.058484 
L 108.447605 136.058484 
L 109.397999 85.789202 
L 110.348393 85.789202 
L 111.298786 85.789202 
L 112.24918 100.910176 
L 113.199574 100.910176 
L 114.149968 100.910176 
L 115.100362 61.38 
L 116.050756 61.38 
L 117.00115 61.38 
L 117.951544 63.189743 
L 118.901937 63.189743 
L 119.852331 63.189743 
L 120.802725 82.223302 
L 121.753119 82.223302 
L 122.703513 82.223302 
L 123.653907 107.28203 
L 124.604301 107.28203 
L 125.554694 107.28203 
L 126.505088 129.935074 
L 127.455482 129.935074 
L 128.405876 129.935074 
L 129.35627 77.541028 
L 130.306664 77.541028 
L 131.257058 77.541028 
L 132.207452 125.992449 
L 133.157845 125.992449 
L 134.108239 125.992449 
L 135.058633 106.483112 
L 136.009027 106.483112 
L 136.959421 106.483112 
L 137.909815 147.443058 
L 138.860209 147.443058 
L 139.810603 147.443058 
L 140.760996 151.350771 
L 141.71139 151.350771 
L 142.661784 151.350771 
L 143.612178 146.308823 
L 144.562572 146.308823 
L 145.512966 146.308823 
L 146.46336 168.562409 
L 147.413753 168.562409 
L 148.364147 168.562409 
L 149.314541 185.621407 
L 150.264935 185.621407 
L 151.215329 185.621407 
L 152.165723 171.441434 
L 153.116117 171.441434 
L 154.066511 171.441434 
L 155.016904 178.336969 
L 155.967298 178.336969 
L 156.917692 178.336969 
L 157.868086 209.210582 
L 158.81848 209.210582 
L 159.768874 209.210582 
L 160.719268 214.23954 
L 161.669661 214.23954 
L 162.620055 214.23954 
L 163.570449 217.949959 
L 164.520843 217.949959 
L 165.471237 217.949959 
L 166.421631 214.190825 
L 167.372025 214.190825 
L 168.322419 214.190825 
L 169.272812 226.821678 
L 170.223206 226.821678 
L 171.1736 226.821678 
L 172.123994 229.306116 
L 173.074388 229.306116 
L 174.024782 229.306116 
L 174.975176 249.951313 
L 175.92557 249.951313 
L 176.875963 249.951313 
L 177.826357 240.608687 
L 178.776751 240.608687 
L 179.727145 240.608687 
L 180.677539 252.719919 
L 181.627933 252.719919 
L 182.578327 252.719919 
L 183.52872 249.675264 
L 184.479114 249.675264 
L 185.429508 249.675264 
L 186.379902 263.97134 
L 187.330296 263.97134 
L 188.28069 263.97134 
L 189.231084 266.800027 
L 190.181478 266.800027 
L 191.131871 266.800027 
L 192.082265 258.410582 
L 193.032659 258.410582 
L 193.983053 258.410582 
L 194.933447 271.46525 
L 195.883841 271.46525 
L 196.834235 271.46525 
L 197.784628 268.624384 
L 198.735022 268.624384 
L 199.685416 268.624384 
L 200.63581 277.562679 
L 201.586204 277.562679 
L 202.536598 277.562679 
L 203.486992 267.732909 
L 204.437386 267.732909 
L 205.387779 267.732909 
L 206.338173 283.011394 
L 207.288567 283.011394 
L 208.238961 283.011394 
L 209.189355 290.713153 
L 210.139749 290.713153 
L 211.090143 290.713153 
L 212.040537 292.224114 
L 212.99093 292.224114 
L 213.941324 292.224114 
L 214.891718 295.189202 
L 215.842112 295.189202 
L 216.792506 295.189202 
L 217.7429 297.63548 
L 218.693294 297.63548 
L 219.643687 297.63548 
L 220.594081 300.080135 
L 221.544475 300.080135 
L 222.494869 300.080135 
L 223.445263 303.378917 
L 224.395657 303.378917 
L 225.346051 303.378917 
L 226.296445 305.714777 
L 227.246838 305.714777 
L 228.197232 305.714777 
L 229.147626 303.870122 
L 230.09802 303.870122 
L 231.048414 303.870122 
L 231.998808 302.092043 
L 232.949202 302.092043 
L 233.899595 302.092043 
L 234.849989 305.668498 
L 235.800383 305.668498 
L 236.750777 305.668498 
L 237.701171 306.485277 
L 238.651565 306.485277 
L 239.601959 306.485277 
L 240.552353 306.527497 
L 241.502746 306.527497 
L 242.45314 306.527497 
L 243.403534 309.758078 
L 244.353928 309.758078 
L 245.304322 309.758078 
L 246.254716 310.269581 
L 247.20511 310.269581 
L 248.155504 310.269581 
L 249.105897 311.907199 
L 250.056291 311.907199 
L 251.006685 311.907199 
L 251.957079 314.119648 
L 252.907473 314.119648 
L 253.857867 314.119648 
L 254.808261 316.255778 
L 255.758654 316.255778 
L 256.709048 316.255778 
L 257.659442 316.854966 
L 258.609836 316.854966 
L 259.56023 316.854966 
L 260.510624 319.02276 
L 261.461018 319.02276 
L 262.411412 319.02276 
L 263.361805 316.777023 
L 264.312199 316.777023 
L 265.262593 316.777023 
L 266.212987 316.98 
L 267.163381 316.98 
L 268.113775 316.98 
L 269.064169 317.129391 
L 270.014562 317.129391 
L 270.964956 317.129391 
L 271.91535 323.055507 
L 272.865744 323.055507 
L 273.816138 323.055507 
L 274.766532 320.649824 
L 275.716926 320.649824 
L 276.66732 320.649824 
L 277.617713 320.223572 
L 278.568107 320.223572 
L 279.518501 320.223572 
L 280.468895 322.891502 
L 281.419289 322.891502 
L 282.369683 322.891502 
L 283.320077 322.211935 
L 284.270471 322.211935 
L 285.220864 322.211935 
L 286.171258 323.348606 
L 287.121652 323.348606 
L 288.072046 323.348606 
L 289.02244 324.054154 
L 289.972834 324.054154 
L 290.923228 324.054154 
L 291.873621 323.680677 
L 292.824015 323.680677 
L 293.774409 323.680677 
L 294.724803 324.644411 
L 295.675197 324.644411 
L 296.625591 324.644411 
L 297.575985 324.931015 
L 298.526379 324.931015 
L 299.476772 324.931015 
L 300.427166 326.493938 
L 301.37756 326.493938 
L 302.327954 326.493938 
L 303.278348 326.13751 
L 304.228742 326.13751 
L 305.179136 326.13751 
L 306.129529 324.164574 
L 307.079923 324.164574 
L 308.030317 324.164574 
L 308.980711 325.388931 
L 309.931105 325.388931 
L 310.881499 325.388931 
L 311.831893 327.029797 
L 312.782287 327.029797 
L 313.73268 327.029797 
L 314.683074 326.520731 
L 315.633468 326.520731 
L 316.583862 326.520731 
L 317.534256 326.211394 
L 318.48465 326.211394 
L 319.435044 326.211394 
L 320.385438 328.638999 
L 321.335831 328.638999 
L 322.286225 328.638999 
L 323.236619 329.095291 
L 324.187013 329.095291 
L 325.137407 329.095291 
L 326.087801 331.478241 
L 327.038195 331.478241 
L 327.988588 331.478241 
L 328.938982 328.143735 
L 329.889376 328.143735 
L 330.83977 328.143735 
L 331.790164 324.92452 
L 332.740558 324.92452 
L 333.690952 324.92452 
L 334.641346 326.75862 
L 335.591739 326.75862 
L 336.542133 326.75862 
L 337.492527 327.241705 
L 338.442921 327.241705 
L 339.393315 327.241705 
L 340.343709 329.47364 
L 341.294103 329.47364 
L 342.244496 329.47364 
L 343.19489 329.75862 
L 344.145284 329.75862 
L 345.095678 329.75862 
L 346.046072 329.00111 
L 346.996466 329.00111 
L 347.94686 329.00111 
L 348.897254 328.811123 
L 349.847647 328.811123 
L 350.798041 328.811123 
L 351.748435 331.649553 
L 352.698829 331.649553 
L 353.649223 331.649553 
L 354.599617 331.548065 
L 355.550011 331.548065 
L 356.500405 331.548065 
L 357.450798 330.531556 
L 358.401192 330.531556 
L 359.351586 330.531556 
L 360.30198 329.828444 
L 361.252374 329.828444 
L 362.202768 329.828444 
L 363.153162 331.880947 
L 364.103555 331.880947 
L 365.053949 331.880947 
L 366.004343 331.444141 
L 366.954737 331.444141 
L 367.905131 331.444141 
L 368.855525 330.807605 
L 369.805919 330.807605 
L 370.756313 330.807605 
L 371.706706 332.559702 
L 372.6571 332.559702 
L 373.607494 332.559702 
L 374.557888 332.750501 
L 375.508282 332.750501 
L 376.458676 332.750501 
L 377.40907 331.067415 
L 378.359463 331.067415 
L 379.309857 331.067415 
L 380.260251 329.991637 
L 381.210645 329.991637 
L 382.161039 329.991637 
L 383.111433 331.683654 
L 384.061827 331.683654 
L 385.012221 331.683654 
L 385.962614 333.671204 
L 386.913008 333.671204 
L 387.863402 333.671204 
L 388.813796 332.908823 
L 389.76419 332.908823 
L 390.714584 332.908823 
L 391.664978 331.501786 
L 392.615372 331.501786 
L 393.565765 331.501786 
L 394.516159 332.939675 
L 395.466553 332.939675 
L 396.416947 332.939675 
L 397.367341 332.722084 
L 398.317735 332.722084 
L 399.268129 332.722084 
L 400.218522 334.06498 
L 401.168916 334.06498 
L 402.11931 334.06498 
L 403.069704 335.20571 
L 404.020098 335.20571 
L 404.970492 335.20571 
L 405.920886 334.449824 
L 406.87128 334.449824 
L 407.821673 334.449824 
L 408.772067 335.000298 
L 409.722461 335.000298 
L 410.672855 335.000298 
L 411.623249 336.02249 
L 412.573643 336.02249 
L 413.524037 336.02249 
L 414.47443 335.6482 
L 415.424824 335.6482 
L 416.375218 335.6482 
L 417.325612 336.661461 
L 418.276006 336.661461 
L 419.2264 336.661461 
L 420.176794 334.098268 
L 421.127188 334.098268 
L 422.077581 334.098268 
L 423.027975 337.207876 
L 423.978369 337.207876 
L 424.928763 334.678354 
L 425.879157 334.683003 
L 426.829551 334.489939 
L 427.779945 334.226552 
L 428.730339 333.942182 
L 429.680732 333.654829 
L 430.631126 333.37086 
L 431.58152 333.092629 
L 432.531914 332.821172 
L 433.482308 332.557031 
L 434.432702 332.300526 
L 435.383096 332.051802 
L 436.333489 331.810884 
L 437.283883 331.577682 
L 438.234277 331.352046 
L 439.184671 331.133777 
L 440.135065 330.922654 
L 441.085459 330.718449 
L 442.035853 330.520919 
L 442.986247 330.329812 
L 443.93664 330.14491 
L 444.887034 329.96597 
L 445.837428 329.792777 
L 446.787822 329.625119 
L 447.738216 329.462795 
L 448.68861 329.305606 
L 449.639004 329.153364 
L 450.589397 329.005904 
L 451.539791 328.863047 
L 452.490185 328.724629 
L 453.440579 328.59049 
L 454.390973 328.460492 
L 455.341367 328.334497 
L 456.291761 328.212344 
L 457.242155 328.093922 
L 458.192548 327.979086 
L 459.142942 327.867732 
L 460.093336 327.759742 
L 461.04373 327.654992 
L 461.994124 327.553387 
L 462.944518 327.454826 
L 463.894912 327.359195 
L 464.845306 327.266408 
L 465.795699 327.176367 
L 466.746093 327.088987 
L 467.696487 327.004184 
L 468.646881 326.92187 
L 469.597275 326.841968 
L 470.547669 326.764406 
L 471.498063 326.689104 
L 472.448456 326.615996 
L 473.39885 326.54501 
L 474.349244 326.476082 
L 475.299638 326.409144 
L 476.250032 326.34414 
L 477.200426 326.281002 
L 478.15082 326.219691 
L 479.101214 326.160127 
L 480.051607 326.102276 
L 481.002001 326.046074 
L 481.952395 325.991477 
L 482.902789 325.938441 
L 483.853183 325.886908 
L 484.803577 325.836842 
L 485.753971 325.788184 
L 486.704364 325.740919 
L 487.654758 325.694988 
L 488.605152 325.650346 
L 489.555546 325.606965 
L 490.50594 325.564812 
L 491.456334 325.523837 
L 492.406728 325.48401 
L 493.357122 325.445307 
L 494.307515 325.407684 
L 495.257909 325.371112 
L 496.208303 325.335557 
L 497.158697 325.301001 
L 498.109091 325.267399 
L 498.109091 331.764961 
L 498.109091 331.764961 
L 497.158697 331.766234 
L 496.208303 331.767608 
L 495.257909 331.769076 
L 494.307515 331.770667 
L 493.357122 331.772359 
L 492.406728 331.774199 
L 491.456334 331.776171 
L 490.50594 331.778282 
L 489.555546 331.780557 
L 488.605152 331.783002 
L 487.654758 331.785634 
L 486.704364 331.78846 
L 485.753971 331.791503 
L 484.803577 331.794771 
L 483.853183 331.79828 
L 482.902789 331.80206 
L 481.952395 331.80612 
L 481.002001 331.810483 
L 480.051607 331.815187 
L 479.101214 331.820233 
L 478.15082 331.825667 
L 477.200426 331.831505 
L 476.250032 331.837785 
L 475.299638 331.844531 
L 474.349244 331.851789 
L 473.39885 331.859591 
L 472.448456 331.86799 
L 471.498063 331.877011 
L 470.547669 331.886715 
L 469.597275 331.897148 
L 468.646881 331.908373 
L 467.696487 331.920444 
L 466.746093 331.933432 
L 465.795699 331.947405 
L 464.845306 331.962418 
L 463.894912 331.978573 
L 462.944518 331.995946 
L 461.994124 332.014647 
L 461.04373 332.034753 
L 460.093336 332.05638 
L 459.142942 332.079654 
L 458.192548 332.104681 
L 457.242155 332.131634 
L 456.291761 332.160621 
L 455.341367 332.191812 
L 454.390973 332.225379 
L 453.440579 332.261515 
L 452.490185 332.300399 
L 451.539791 332.342257 
L 450.589397 332.387313 
L 449.639004 332.435831 
L 448.68861 332.488075 
L 447.738216 332.544333 
L 446.787822 332.604922 
L 445.837428 332.670193 
L 444.887034 332.740517 
L 443.93664 332.816275 
L 442.986247 332.89794 
L 442.035853 332.985964 
L 441.085459 333.080865 
L 440.135065 333.183211 
L 439.184671 333.293615 
L 438.234277 333.412729 
L 437.283883 333.541275 
L 436.333489 333.680037 
L 435.383096 333.829915 
L 434.432702 333.991826 
L 433.482308 334.166871 
L 432.531914 334.356263 
L 431.58152 334.561444 
L 430.631126 334.784107 
L 429.680732 335.026076 
L 428.730339 335.288571 
L 427.779945 335.569813 
L 426.829551 335.858026 
L 425.879157 336.115335 
L 424.928763 336.245953 
L 423.978369 338.58 
L 423.027975 338.58 
L 422.077581 337.219242 
L 421.127188 337.219242 
L 420.176794 337.219242 
L 419.2264 337.211123 
L 418.276006 337.211123 
L 417.325612 337.211123 
L 416.375218 338.308823 
L 415.424824 338.308823 
L 414.47443 338.308823 
L 413.524037 338.038457 
L 412.573643 338.038457 
L 411.623249 338.038457 
L 410.672855 338.004357 
L 409.722461 338.004357 
L 408.772067 338.004357 
L 407.821673 336.417889 
L 406.87128 336.417889 
L 405.920886 336.417889 
L 404.970492 336.844141 
L 404.020098 336.844141 
L 403.069704 336.844141 
L 402.11931 335.942111 
L 401.168916 335.942111 
L 400.218522 335.942111 
L 399.268129 335.570257 
L 398.317735 335.570257 
L 397.367341 335.570257 
L 396.416947 335.496373 
L 395.466553 335.496373 
L 394.516159 335.496373 
L 393.565765 335.122084 
L 392.615372 335.122084 
L 391.664978 335.122084 
L 390.714584 334.450636 
L 389.76419 334.450636 
L 388.813796 334.450636 
L 387.863402 335.194344 
L 386.913008 335.194344 
L 385.962614 335.194344 
L 385.012221 334.11207 
L 384.061827 334.11207 
L 383.111433 334.11207 
L 382.161039 334.028444 
L 381.210645 334.028444 
L 380.260251 334.028444 
L 379.309857 333.026549 
L 378.359463 333.026549 
L 377.40907 333.026549 
L 376.458676 333.702057 
L 375.508282 333.702057 
L 374.557888 333.702057 
L 373.607494 335.184601 
L 372.6571 335.184601 
L 371.706706 335.184601 
L 370.756313 332.800027 
L 369.805919 332.800027 
L 368.855525 332.800027 
L 367.905131 331.713694 
L 366.954737 331.713694 
L 366.004343 331.713694 
L 365.053949 332.221137 
L 364.103555 332.221137 
L 363.153162 332.221137 
L 362.202768 331.985683 
L 361.252374 331.985683 
L 360.30198 331.985683 
L 359.351586 333.134533 
L 358.401192 333.134533 
L 357.450798 333.134533 
L 356.500405 333.393532 
L 355.550011 333.393532 
L 354.599617 333.393532 
L 353.649223 333.37161 
L 352.698829 333.37161 
L 351.748435 333.37161 
L 350.798041 330.099621 
L 349.847647 330.099621 
L 348.897254 330.099621 
L 347.94686 332.318566 
L 346.996466 332.318566 
L 346.046072 332.318566 
L 345.095678 330.471475 
L 344.145284 330.471475 
L 343.19489 330.471475 
L 342.244496 331.675535 
L 341.294103 331.675535 
L 340.343709 331.675535 
L 339.393315 329.633586 
L 338.442921 329.633586 
L 337.492527 329.633586 
L 336.542133 329.821949 
L 335.591739 329.821949 
L 334.641346 329.821949 
L 333.690952 328.340217 
L 332.740558 328.340217 
L 331.790164 328.340217 
L 330.83977 331.267145 
L 329.889376 331.267145 
L 328.938982 331.267145 
L 327.988588 332.574317 
L 327.038195 332.574317 
L 326.087801 332.574317 
L 325.137407 330.053342 
L 324.187013 330.053342 
L 323.236619 330.053342 
L 322.286225 329.220325 
L 321.335831 329.220325 
L 320.385438 329.220325 
L 319.435044 329.891773 
L 318.48465 329.891773 
L 317.534256 329.891773 
L 316.583862 327.887172 
L 315.633468 327.887172 
L 314.683074 327.887172 
L 313.73268 330.685007 
L 312.782287 330.685007 
L 311.831893 330.685007 
L 310.881499 327.977294 
L 309.931105 327.977294 
L 308.980711 327.977294 
L 308.030317 326.298268 
L 307.079923 326.298268 
L 306.129529 326.298268 
L 305.179136 327.63954 
L 304.228742 327.63954 
L 303.278348 327.63954 
L 302.327954 329.517483 
L 301.37756 329.517483 
L 300.427166 329.517483 
L 299.476772 327.450365 
L 298.526379 327.450365 
L 297.575985 327.450365 
L 296.625591 326.380271 
L 295.675197 326.380271 
L 294.724803 326.380271 
L 293.774409 325.806252 
L 292.824015 325.806252 
L 291.873621 325.806252 
L 290.923228 326.873099 
L 289.972834 326.873099 
L 289.02244 326.873099 
L 288.072046 325.449824 
L 287.121652 325.449824 
L 286.171258 325.449824 
L 285.220864 324.53318 
L 284.270471 324.53318 
L 283.320077 324.53318 
L 282.369683 323.412747 
L 281.419289 323.412747 
L 280.468895 323.412747 
L 279.518501 325.36295 
L 278.568107 325.36295 
L 277.617713 325.36295 
L 276.66732 323.010041 
L 275.716926 323.010041 
L 274.766532 323.010041 
L 273.816138 323.739134 
L 272.865744 323.739134 
L 271.91535 323.739134 
L 270.964956 322.293938 
L 270.014562 322.293938 
L 269.064169 322.293938 
L 268.113775 322.297185 
L 267.163381 322.297185 
L 266.212987 322.297185 
L 265.262593 320.461461 
L 264.312199 320.461461 
L 263.361805 320.461461 
L 262.411412 322.345088 
L 261.461018 322.345088 
L 260.510624 322.345088 
L 259.56023 321.306658 
L 258.609836 321.306658 
L 257.659442 321.306658 
L 256.709048 318.156455 
L 255.758654 318.156455 
L 254.808261 318.156455 
L 253.857867 317.795968 
L 252.907473 317.795968 
L 251.957079 317.795968 
L 251.006685 316.532639 
L 250.056291 316.532639 
L 249.105897 316.532639 
L 248.155504 316.889878 
L 247.20511 316.889878 
L 246.254716 316.889878 
L 245.304322 311.835751 
L 244.353928 311.835751 
L 243.403534 311.835751 
L 242.45314 311.533721 
L 241.502746 311.533721 
L 240.552353 311.533721 
L 239.601959 313.03088 
L 238.651565 313.03088 
L 237.701171 313.03088 
L 236.750777 307.73724 
L 235.800383 307.73724 
L 234.849989 307.73724 
L 233.899595 309.149959 
L 232.949202 309.149959 
L 231.998808 309.149959 
L 231.048414 305.463897 
L 230.09802 305.463897 
L 229.147626 305.463897 
L 228.197232 309.067957 
L 227.246838 309.067957 
L 226.296445 309.067957 
L 225.346051 304.29069 
L 224.395657 304.29069 
L 223.445263 304.29069 
L 222.494869 303.757267 
L 221.544475 303.757267 
L 220.594081 303.757267 
L 219.643687 300.969175 
L 218.693294 300.969175 
L 217.7429 300.969175 
L 216.792506 299.722896 
L 215.842112 299.722896 
L 214.891718 299.722896 
L 213.941324 300.72479 
L 212.99093 300.72479 
L 212.040537 300.72479 
L 211.090143 294.800298 
L 210.139749 294.800298 
L 209.189355 294.800298 
L 208.238961 296.338051 
L 207.288567 296.338051 
L 206.338173 296.338051 
L 205.387779 293.273911 
L 204.437386 293.273911 
L 203.486992 293.273911 
L 202.536598 292.164844 
L 201.586204 292.164844 
L 200.63581 292.164844 
L 199.685416 291.894479 
L 198.735022 291.894479 
L 197.784628 291.894479 
L 196.834235 280.887442 
L 195.883841 280.887442 
L 194.933447 280.887442 
L 193.983053 277.628444 
L 193.032659 277.628444 
L 192.082265 277.628444 
L 191.131871 275.685548 
L 190.181478 275.685548 
L 189.231084 275.685548 
L 188.28069 268.600839 
L 187.330296 268.600839 
L 186.379902 268.600839 
L 185.429508 263.106658 
L 184.479114 263.106658 
L 183.52872 263.106658 
L 182.578327 266.045765 
L 181.627933 266.045765 
L 180.677539 266.045765 
L 179.727145 259.604899 
L 178.776751 259.604899 
L 177.826357 259.604899 
L 176.875963 259.527767 
L 175.92557 259.527767 
L 174.975176 259.527767 
L 174.024782 254.10747 
L 173.074388 254.10747 
L 172.123994 254.10747 
L 171.1736 245.430609 
L 170.223206 245.430609 
L 169.272812 245.430609 
L 168.322419 233.830068 
L 167.372025 233.830068 
L 166.421631 233.830068 
L 165.471237 233.269851 
L 164.520843 233.269851 
L 163.570449 233.269851 
L 162.620055 229.380812 
L 161.669661 229.380812 
L 160.719268 229.380812 
L 159.768874 228.305846 
L 158.81848 228.305846 
L 157.868086 228.305846 
L 156.917692 204.683383 
L 155.967298 204.683383 
L 155.016904 204.683383 
L 154.066511 209.530474 
L 153.116117 209.530474 
L 152.165723 209.530474 
L 151.215329 191.373775 
L 150.264935 191.373775 
L 149.314541 191.373775 
L 148.364147 177.736969 
L 147.413753 177.736969 
L 146.46336 177.736969 
L 145.512966 189.805981 
L 144.562572 189.805981 
L 143.612178 189.805981 
L 142.661784 160.246847 
L 141.71139 160.246847 
L 140.760996 160.246847 
L 139.810603 153.568092 
L 138.860209 153.568092 
L 137.909815 153.568092 
L 136.959421 129.849824 
L 136.009027 129.849824 
L 135.058633 129.849824 
L 134.108239 139.867145 
L 133.157845 139.867145 
L 132.207452 139.867145 
L 131.257058 121.519648 
L 130.306664 121.519648 
L 129.35627 121.519648 
L 128.405876 142.885007 
L 127.455482 142.885007 
L 126.505088 142.885007 
L 125.554694 128.834939 
L 124.604301 128.834939 
L 123.653907 128.834939 
L 122.703513 121.20138 
L 121.753119 121.20138 
L 120.802725 121.20138 
L 119.852331 95.650636 
L 118.901937 95.650636 
L 117.951544 95.650636 
L 117.00115 78.100433 
L 116.050756 78.100433 
L 115.100362 78.100433 
L 114.149968 115.957267 
L 113.199574 115.957267 
L 112.24918 115.957267 
L 111.298786 130.80138 
L 110.348393 130.80138 
L 109.397999 130.80138 
L 108.447605 159.149147 
L 107.497211 159.149147 
L 106.546817 159.149147 
L 105.596423 157.139675 
L 104.646029 157.139675 
L 103.695636 157.139675 
L 102.745242 185.032774 
L 101.794848 185.032774 
L 100.844454 185.032774 
L 99.89406 247.454696 
L 98.943666 247.454696 
L 97.993272 247.454696 
L 97.042878 268.233045 
L 96.092485 268.233045 
L 95.142091 268.233045 
L 94.191697 289.751854 
L 93.241303 289.751854 
L 92.290909 289.751854 
z
" clip-path="url(#p50cd7fee3e)" style="fill: #ff0000; fill-opacity: 0.1"/>
   </g>
   <g id="line2d_23">
    <path d="M 92.290909 272.804899 
L 94.191697 272.804899 
L 95.142091 230.279594 
L 97.042878 230.279594 
L 97.993272 188.060379 
L 99.89406 188.060379 
L 100.844454 174.812476 
L 102.745242 174.812476 
L 103.695636 127.376752 
L 105.596423 127.376752 
L 106.546817 136.058484 
L 108.447605 136.058484 
L 109.397999 85.789202 
L 111.298786 85.789202 
L 112.24918 100.910176 
L 114.149968 100.910176 
L 115.100362 61.38 
L 117.00115 61.38 
L 117.951544 63.189743 
L 119.852331 63.189743 
L 120.802725 82.223302 
L 122.703513 82.223302 
L 123.653907 107.28203 
L 125.554694 107.28203 
L 126.505088 129.935074 
L 128.405876 129.935074 
L 129.35627 77.541028 
L 131.257058 77.541028 
L 132.207452 125.992449 
L 134.108239 125.992449 
L 135.058633 106.483112 
L 136.959421 106.483112 
L 137.909815 147.443058 
L 139.810603 147.443058 
L 140.760996 151.350771 
L 142.661784 151.350771 
L 143.612178 146.308823 
L 145.512966 146.308823 
L 146.46336 168.562409 
L 148.364147 168.562409 
L 149.314541 185.621407 
L 151.215329 185.621407 
L 152.165723 171.441434 
L 154.066511 171.441434 
L 155.016904 178.336969 
L 156.917692 178.336969 
L 157.868086 209.210582 
L 159.768874 209.210582 
L 160.719268 214.23954 
L 162.620055 214.23954 
L 163.570449 217.949959 
L 165.471237 217.949959 
L 166.421631 214.190825 
L 168.322419 214.190825 
L 169.272812 226.821678 
L 171.1736 226.821678 
L 172.123994 229.306116 
L 174.024782 229.306116 
L 174.975176 249.951313 
L 176.875963 249.951313 
L 177.826357 240.608687 
L 179.727145 240.608687 
L 180.677539 252.719919 
L 182.578327 252.719919 
L 183.52872 249.675264 
L 185.429508 249.675264 
L 186.379902 263.97134 
L 188.28069 263.97134 
L 189.231084 266.800027 
L 191.131871 266.800027 
L 192.082265 258.410582 
L 193.983053 258.410582 
L 194.933447 271.46525 
L 196.834235 271.46525 
L 197.784628 268.624384 
L 199.685416 268.624384 
L 200.63581 277.562679 
L 202.536598 277.562679 
L 203.486992 267.732909 
L 205.387779 267.732909 
L 206.338173 283.011394 
L 208.238961 283.011394 
L 209.189355 290.713153 
L 211.090143 290.713153 
L 212.040537 292.224114 
L 213.941324 292.224114 
L 214.891718 295.189202 
L 216.792506 295.189202 
L 217.7429 297.63548 
L 219.643687 297.63548 
L 220.594081 300.080135 
L 222.494869 300.080135 
L 223.445263 303.378917 
L 225.346051 303.378917 
L 226.296445 305.714777 
L 228.197232 305.714777 
L 229.147626 303.870122 
L 231.048414 303.870122 
L 231.998808 302.092043 
L 233.899595 302.092043 
L 234.849989 305.668498 
L 236.750777 305.668498 
L 237.701171 306.485277 
L 242.45314 306.527497 
L 243.403534 309.758078 
L 245.304322 309.758078 
L 246.254716 310.269581 
L 248.155504 310.269581 
L 249.105897 311.907199 
L 251.006685 311.907199 
L 251.957079 314.119648 
L 253.857867 314.119648 
L 254.808261 316.255778 
L 256.709048 316.255778 
L 257.659442 316.854966 
L 259.56023 316.854966 
L 260.510624 319.02276 
L 262.411412 319.02276 
L 263.361805 316.777023 
L 265.262593 316.777023 
L 266.212987 316.98 
L 268.113775 316.98 
L 269.064169 317.129391 
L 270.964956 317.129391 
L 271.91535 323.055507 
L 273.816138 323.055507 
L 274.766532 320.649824 
L 276.66732 320.649824 
L 277.617713 320.223572 
L 279.518501 320.223572 
L 280.468895 322.891502 
L 282.369683 322.891502 
L 283.320077 322.211935 
L 285.220864 322.211935 
L 286.171258 323.348606 
L 288.072046 323.348606 
L 289.02244 324.054154 
L 290.923228 324.054154 
L 291.873621 323.680677 
L 293.774409 323.680677 
L 294.724803 324.644411 
L 296.625591 324.644411 
L 297.575985 324.931015 
L 299.476772 324.931015 
L 300.427166 326.493938 
L 302.327954 326.493938 
L 303.278348 326.13751 
L 305.179136 326.13751 
L 306.129529 324.164574 
L 308.030317 324.164574 
L 308.980711 325.388931 
L 310.881499 325.388931 
L 311.831893 327.029797 
L 313.73268 327.029797 
L 314.683074 326.520731 
L 316.583862 326.520731 
L 317.534256 326.211394 
L 319.435044 326.211394 
L 320.385438 328.638999 
L 322.286225 328.638999 
L 323.236619 329.095291 
L 325.137407 329.095291 
L 326.087801 331.478241 
L 327.988588 331.478241 
L 328.938982 328.143735 
L 330.83977 328.143735 
L 331.790164 324.92452 
L 333.690952 324.92452 
L 334.641346 326.75862 
L 336.542133 326.75862 
L 337.492527 327.241705 
L 339.393315 327.241705 
L 340.343709 329.47364 
L 342.244496 329.47364 
L 343.19489 329.75862 
L 345.095678 329.75862 
L 346.046072 329.00111 
L 347.94686 329.00111 
L 348.897254 328.811123 
L 350.798041 328.811123 
L 351.748435 331.649553 
L 356.500405 331.548065 
L 357.450798 330.531556 
L 359.351586 330.531556 
L 360.30198 329.828444 
L 362.202768 329.828444 
L 363.153162 331.880947 
L 365.053949 331.880947 
L 366.004343 331.444141 
L 367.905131 331.444141 
L 368.855525 330.807605 
L 370.756313 330.807605 
L 371.706706 332.559702 
L 373.607494 332.559702 
L 374.557888 332.750501 
L 376.458676 332.750501 
L 377.40907 331.067415 
L 379.309857 331.067415 
L 380.260251 329.991637 
L 382.161039 329.991637 
L 383.111433 331.683654 
L 385.012221 331.683654 
L 385.962614 333.671204 
L 387.863402 333.671204 
L 388.813796 332.908823 
L 390.714584 332.908823 
L 391.664978 331.501786 
L 393.565765 331.501786 
L 394.516159 332.939675 
L 396.416947 332.939675 
L 397.367341 332.722084 
L 399.268129 332.722084 
L 400.218522 334.06498 
L 402.11931 334.06498 
L 403.069704 335.20571 
L 404.970492 335.20571 
L 405.920886 334.449824 
L 407.821673 334.449824 
L 408.772067 335.000298 
L 410.672855 335.000298 
L 411.623249 336.02249 
L 413.524037 336.02249 
L 414.47443 335.6482 
L 416.375218 335.6482 
L 417.325612 336.661461 
L 419.2264 336.661461 
L 420.176794 334.098268 
L 422.077581 334.098268 
L 423.027975 337.207876 
L 423.978369 337.207876 
L 424.928763 334.678354 
L 425.879157 334.683003 
L 427.779945 334.226552 
L 435.383096 332.051802 
L 441.085459 330.718449 
L 446.787822 329.625119 
L 453.440579 328.59049 
L 461.04373 327.654992 
L 469.597275 326.841968 
L 479.101214 326.160127 
L 490.50594 325.564812 
L 498.109091 325.267399 
L 498.109091 325.267399 
" clip-path="url(#p50cd7fee3e)" style="fill: none; stroke: #0000ff; stroke-width: 1.75; stroke-linecap: round"/>
   </g>
   <g id="line2d_24">
    <path d="M 92.290909 289.751854 
L 94.191697 289.751854 
L 95.142091 268.233045 
L 97.042878 268.233045 
L 97.993272 247.454696 
L 99.89406 247.454696 
L 100.844454 185.032774 
L 102.745242 185.032774 
L 103.695636 157.139675 
L 105.596423 157.139675 
L 106.546817 159.149147 
L 108.447605 159.149147 
L 109.397999 130.80138 
L 111.298786 130.80138 
L 112.24918 115.957267 
L 114.149968 115.957267 
L 115.100362 78.100433 
L 117.00115 78.100433 
L 117.951544 95.650636 
L 119.852331 95.650636 
L 120.802725 121.20138 
L 122.703513 121.20138 
L 123.653907 128.834939 
L 125.554694 128.834939 
L 126.505088 142.885007 
L 128.405876 142.885007 
L 129.35627 121.519648 
L 131.257058 121.519648 
L 132.207452 139.867145 
L 134.108239 139.867145 
L 135.058633 129.849824 
L 136.959421 129.849824 
L 137.909815 153.568092 
L 139.810603 153.568092 
L 140.760996 160.246847 
L 142.661784 160.246847 
L 143.612178 189.805981 
L 145.512966 189.805981 
L 146.46336 177.736969 
L 148.364147 177.736969 
L 149.314541 191.373775 
L 151.215329 191.373775 
L 152.165723 209.530474 
L 154.066511 209.530474 
L 155.016904 204.683383 
L 156.917692 204.683383 
L 157.868086 228.305846 
L 159.768874 228.305846 
L 160.719268 229.380812 
L 162.620055 229.380812 
L 163.570449 233.269851 
L 165.471237 233.269851 
L 166.421631 233.830068 
L 168.322419 233.830068 
L 169.272812 245.430609 
L 171.1736 245.430609 
L 172.123994 254.10747 
L 174.024782 254.10747 
L 174.975176 259.527767 
L 179.727145 259.604899 
L 180.677539 266.045765 
L 182.578327 266.045765 
L 183.52872 263.106658 
L 185.429508 263.106658 
L 186.379902 268.600839 
L 188.28069 268.600839 
L 189.231084 275.685548 
L 191.131871 275.685548 
L 192.082265 277.628444 
L 193.983053 277.628444 
L 194.933447 280.887442 
L 196.834235 280.887442 
L 197.784628 291.894479 
L 199.685416 291.894479 
L 200.63581 292.164844 
L 202.536598 292.164844 
L 203.486992 293.273911 
L 205.387779 293.273911 
L 206.338173 296.338051 
L 208.238961 296.338051 
L 209.189355 294.800298 
L 211.090143 294.800298 
L 212.040537 300.72479 
L 213.941324 300.72479 
L 214.891718 299.722896 
L 216.792506 299.722896 
L 217.7429 300.969175 
L 219.643687 300.969175 
L 220.594081 303.757267 
L 222.494869 303.757267 
L 223.445263 304.29069 
L 225.346051 304.29069 
L 226.296445 309.067957 
L 228.197232 309.067957 
L 229.147626 305.463897 
L 231.048414 305.463897 
L 231.998808 309.149959 
L 233.899595 309.149959 
L 234.849989 307.73724 
L 236.750777 307.73724 
L 237.701171 313.03088 
L 239.601959 313.03088 
L 240.552353 311.533721 
L 242.45314 311.533721 
L 243.403534 311.835751 
L 245.304322 311.835751 
L 246.254716 316.889878 
L 248.155504 316.889878 
L 249.105897 316.532639 
L 251.006685 316.532639 
L 251.957079 317.795968 
L 253.857867 317.795968 
L 254.808261 318.156455 
L 256.709048 318.156455 
L 257.659442 321.306658 
L 259.56023 321.306658 
L 260.510624 322.345088 
L 262.411412 322.345088 
L 263.361805 320.461461 
L 265.262593 320.461461 
L 266.212987 322.297185 
L 270.964956 322.293938 
L 271.91535 323.739134 
L 273.816138 323.739134 
L 274.766532 323.010041 
L 276.66732 323.010041 
L 277.617713 325.36295 
L 279.518501 325.36295 
L 280.468895 323.412747 
L 282.369683 323.412747 
L 283.320077 324.53318 
L 285.220864 324.53318 
L 286.171258 325.449824 
L 288.072046 325.449824 
L 289.02244 326.873099 
L 290.923228 326.873099 
L 291.873621 325.806252 
L 293.774409 325.806252 
L 294.724803 326.380271 
L 296.625591 326.380271 
L 297.575985 327.450365 
L 299.476772 327.450365 
L 300.427166 329.517483 
L 302.327954 329.517483 
L 303.278348 327.63954 
L 305.179136 327.63954 
L 306.129529 326.298268 
L 308.030317 326.298268 
L 308.980711 327.977294 
L 310.881499 327.977294 
L 311.831893 330.685007 
L 313.73268 330.685007 
L 314.683074 327.887172 
L 316.583862 327.887172 
L 317.534256 329.891773 
L 319.435044 329.891773 
L 320.385438 329.220325 
L 322.286225 329.220325 
L 323.236619 330.053342 
L 325.137407 330.053342 
L 326.087801 332.574317 
L 327.988588 332.574317 
L 328.938982 331.267145 
L 330.83977 331.267145 
L 331.790164 328.340217 
L 333.690952 328.340217 
L 334.641346 329.821949 
L 336.542133 329.821949 
L 337.492527 329.633586 
L 339.393315 329.633586 
L 340.343709 331.675535 
L 342.244496 331.675535 
L 343.19489 330.471475 
L 345.095678 330.471475 
L 346.046072 332.318566 
L 347.94686 332.318566 
L 348.897254 330.099621 
L 350.798041 330.099621 
L 351.748435 333.37161 
L 356.500405 333.393532 
L 357.450798 333.134533 
L 359.351586 333.134533 
L 360.30198 331.985683 
L 362.202768 331.985683 
L 363.153162 332.221137 
L 365.053949 332.221137 
L 366.004343 331.713694 
L 367.905131 331.713694 
L 368.855525 332.800027 
L 370.756313 332.800027 
L 371.706706 335.184601 
L 373.607494 335.184601 
L 374.557888 333.702057 
L 376.458676 333.702057 
L 377.40907 333.026549 
L 379.309857 333.026549 
L 380.260251 334.028444 
L 385.012221 334.11207 
L 385.962614 335.194344 
L 387.863402 335.194344 
L 388.813796 334.450636 
L 390.714584 334.450636 
L 391.664978 335.122084 
L 393.565765 335.122084 
L 394.516159 335.496373 
L 399.268129 335.570257 
L 400.218522 335.942111 
L 402.11931 335.942111 
L 403.069704 336.844141 
L 404.970492 336.844141 
L 405.920886 336.417889 
L 407.821673 336.417889 
L 408.772067 338.004357 
L 413.524037 338.038457 
L 414.47443 338.308823 
L 416.375218 338.308823 
L 417.325612 337.211123 
L 422.077581 337.219242 
L 423.027975 338.58 
L 423.978369 338.58 
L 424.928763 336.245953 
L 425.879157 336.115335 
L 433.482308 334.166871 
L 437.283883 333.541275 
L 442.035853 332.985964 
L 447.738216 332.544333 
L 455.341367 332.191812 
L 465.795699 331.947405 
L 482.902789 331.80206 
L 498.109091 331.764961 
L 498.109091 331.764961 
" clip-path="url(#p50cd7fee3e)" style="fill: none; stroke: #008000; stroke-width: 1.75; stroke-linecap: round"/>
   </g>
   <g id="line2d_25">
    <path d="M 92.290909 289.751854 
L 93.241303 272.804899 
L 94.191697 280.945088 
L 95.142091 268.233045 
L 96.092485 230.279594 
L 97.042878 243.508823 
L 97.993272 247.454696 
L 99.89406 188.060379 
L 100.844454 185.032774 
L 101.794848 174.812476 
L 102.745242 175.824926 
L 103.695636 127.376752 
L 104.646029 157.139675 
L 105.596423 132.974858 
L 106.546817 159.149147 
L 107.497211 136.058484 
L 108.447605 145.712882 
L 109.397999 130.80138 
L 110.348393 109.73724 
L 111.298786 85.789202 
L 112.24918 114.105304 
L 113.199574 100.910176 
L 114.149968 115.957267 
L 115.100362 78.100433 
L 117.00115 61.38 
L 117.951544 64.410041 
L 118.901937 63.189743 
L 119.852331 95.650636 
L 120.802725 102.697997 
L 121.753119 121.20138 
L 122.703513 82.223302 
L 123.653907 107.28203 
L 124.604301 107.722084 
L 125.554694 128.834939 
L 126.505088 136.094208 
L 127.455482 129.935074 
L 128.405876 142.885007 
L 129.35627 121.519648 
L 130.306664 119.989202 
L 131.257058 77.541028 
L 132.207452 139.867145 
L 133.157845 125.992449 
L 134.108239 133.316671 
L 135.058633 128.91207 
L 136.009027 106.483112 
L 137.909815 151.691773 
L 138.860209 147.443058 
L 139.810603 153.568092 
L 140.760996 151.903681 
L 141.71139 151.350771 
L 142.661784 160.246847 
L 143.612178 146.308823 
L 144.562572 160.343464 
L 145.512966 189.805981 
L 146.46336 168.562409 
L 147.413753 177.736969 
L 148.364147 177.736969 
L 149.314541 186.767009 
L 150.264935 191.373775 
L 151.215329 185.621407 
L 152.165723 171.441434 
L 153.116117 199.289878 
L 154.066511 209.530474 
L 155.016904 204.683383 
L 155.967298 190.516401 
L 156.917692 178.336969 
L 157.868086 217.9459 
L 158.81848 209.210582 
L 159.768874 228.305846 
L 160.719268 229.380812 
L 161.669661 214.23954 
L 162.620055 225.18 
L 163.570449 227.921001 
L 164.520843 217.949959 
L 165.471237 233.269851 
L 166.421631 233.830068 
L 167.372025 220.871204 
L 168.322419 214.190825 
L 169.272812 234.184871 
L 170.223206 226.821678 
L 171.1736 245.430609 
L 173.074388 229.306116 
L 174.024782 254.10747 
L 174.975176 249.951313 
L 175.92557 256.686089 
L 176.875963 259.527767 
L 177.826357 259.604899 
L 178.776751 240.608687 
L 179.727145 246.249824 
L 180.677539 252.719919 
L 181.627933 266.045765 
L 182.578327 261.922084 
L 183.52872 255.144276 
L 184.479114 263.106658 
L 185.429508 249.675264 
L 186.379902 267.540487 
L 187.330296 268.600839 
L 188.28069 263.97134 
L 189.231084 266.800027 
L 190.181478 272.395697 
L 191.131871 275.685548 
L 192.082265 258.410582 
L 193.032659 277.628444 
L 193.983053 276.093938 
L 194.933447 280.887442 
L 195.883841 271.46525 
L 196.834235 274.863897 
L 197.784628 282.977294 
L 198.735022 268.624384 
L 199.685416 291.894479 
L 200.63581 292.164844 
L 201.586204 277.562679 
L 202.536598 285.540487 
L 203.486992 267.732909 
L 204.437386 285.408958 
L 205.387779 293.273911 
L 207.288567 296.338051 
L 208.238961 283.011394 
L 209.189355 294.800298 
L 210.139749 290.713153 
L 211.090143 293.776482 
L 212.040537 292.224114 
L 212.99093 295.764032 
L 213.941324 300.72479 
L 214.891718 299.722896 
L 215.842112 297.796238 
L 216.792506 295.189202 
L 217.7429 297.63548 
L 218.693294 298.476617 
L 219.643687 300.969175 
L 220.594081 300.080135 
L 221.544475 301.280135 
L 222.494869 303.757267 
L 223.445263 304.29069 
L 224.395657 303.913153 
L 225.346051 303.378917 
L 226.296445 306.445494 
L 227.246838 309.067957 
L 228.197232 305.714777 
L 229.147626 304.254154 
L 230.09802 303.870122 
L 231.048414 305.463897 
L 231.998808 302.092043 
L 232.949202 307.9118 
L 233.899595 309.149959 
L 234.849989 307.73724 
L 235.800383 307.320731 
L 236.750777 305.668498 
L 237.701171 306.485277 
L 238.651565 310.255778 
L 239.601959 313.03088 
L 240.552353 309.193802 
L 241.502746 311.533721 
L 242.45314 306.527497 
L 243.403534 309.758078 
L 244.353928 311.835751 
L 245.304322 310.833045 
L 246.254716 316.889878 
L 247.20511 310.269581 
L 248.155504 314.227632 
L 249.105897 311.907199 
L 250.056291 316.532639 
L 251.006685 312.09475 
L 251.957079 314.119648 
L 252.907473 317.795968 
L 253.857867 314.255237 
L 254.808261 316.255778 
L 255.758654 316.803004 
L 257.659442 319.319919 
L 258.609836 316.854966 
L 259.56023 321.306658 
L 260.510624 322.345088 
L 262.411412 319.02276 
L 263.361805 316.777023 
L 264.312199 319.973505 
L 265.262593 320.461461 
L 266.212987 316.98 
L 267.163381 321.290419 
L 268.113775 322.297185 
L 269.064169 317.129391 
L 270.014562 317.668498 
L 270.964956 322.293938 
L 271.91535 323.361597 
L 272.865744 323.739134 
L 273.816138 323.055507 
L 274.766532 320.649824 
L 275.716926 323.010041 
L 276.66732 320.923437 
L 277.617713 323.481759 
L 278.568107 320.223572 
L 279.518501 325.36295 
L 280.468895 322.891502 
L 281.419289 323.366468 
L 282.369683 323.412747 
L 283.320077 324.051719 
L 284.270471 322.211935 
L 285.220864 324.53318 
L 286.171258 324.888796 
L 287.121652 323.348606 
L 288.072046 325.449824 
L 289.02244 326.873099 
L 289.972834 324.054154 
L 290.923228 324.989472 
L 291.873621 324.891231 
L 292.824015 323.680677 
L 293.774409 325.806252 
L 294.724803 326.380271 
L 295.675197 325.806252 
L 296.625591 324.644411 
L 297.575985 324.931015 
L 298.526379 327.450365 
L 299.476772 326.575129 
L 300.427166 329.517483 
L 301.37756 326.493938 
L 302.327954 326.713965 
L 303.278348 326.13751 
L 305.179136 327.63954 
L 306.129529 324.164574 
L 307.079923 326.298268 
L 308.030317 326.078241 
L 308.980711 327.977294 
L 309.931105 327.854696 
L 310.881499 325.388931 
L 311.831893 327.029797 
L 312.782287 329.851177 
L 313.73268 330.685007 
L 314.683074 327.382977 
L 315.633468 327.887172 
L 316.583862 326.520731 
L 317.534256 329.313694 
L 318.48465 326.211394 
L 319.435044 329.891773 
L 321.335831 328.639811 
L 322.286225 328.638999 
L 323.236619 330.053342 
L 324.187013 329.265792 
L 325.137407 329.095291 
L 326.087801 331.478241 
L 327.038195 332.574317 
L 327.988588 331.551313 
L 328.938982 331.267145 
L 329.889376 329.119648 
L 330.83977 328.143735 
L 331.790164 324.92452 
L 332.740558 328.083654 
L 333.690952 328.340217 
L 334.641346 326.75862 
L 335.591739 329.821949 
L 336.542133 329.254425 
L 337.492527 327.241705 
L 338.442921 329.633586 
L 339.393315 328.604087 
L 340.343709 331.675535 
L 341.294103 329.47364 
L 342.244496 330.059026 
L 343.19489 329.75862 
L 344.145284 330.471475 
L 345.095678 329.865792 
L 346.046072 332.318566 
L 346.996466 330.787307 
L 347.94686 329.00111 
L 348.897254 329.223572 
L 349.847647 330.099621 
L 350.798041 328.811123 
L 351.748435 331.649553 
L 352.698829 333.37161 
L 353.649223 332.151313 
L 354.599617 333.393532 
L 355.550011 332.015724 
L 356.500405 331.548065 
L 357.450798 333.134533 
L 359.351586 330.531556 
L 360.30198 330.486089 
L 361.252374 329.828444 
L 362.202768 331.985683 
L 363.153162 332.221137 
L 364.103555 331.880947 
L 365.053949 331.965386 
L 366.004343 331.602463 
L 366.954737 331.444141 
L 367.905131 331.713694 
L 368.855525 331.708823 
L 369.805919 330.807605 
L 370.756313 332.800027 
L 371.706706 332.559702 
L 372.6571 334.791637 
L 373.607494 335.184601 
L 374.557888 333.702057 
L 375.508282 332.886901 
L 376.458676 332.750501 
L 377.40907 331.220866 
L 378.359463 333.026549 
L 379.309857 331.067415 
L 380.260251 329.991637 
L 381.210645 334.028444 
L 382.161039 333.121543 
L 383.111433 331.683654 
L 385.012221 334.11207 
L 385.962614 335.194344 
L 386.913008 334.849283 
L 387.863402 333.671204 
L 388.813796 332.908823 
L 389.76419 334.450636 
L 391.664978 331.501786 
L 392.615372 335.122084 
L 393.565765 334.925602 
L 394.516159 335.496373 
L 395.466553 332.939675 
L 396.416947 333.568092 
L 397.367341 332.722084 
L 398.317735 335.570257 
L 399.268129 333.79705 
L 400.218522 334.751042 
L 401.168916 334.06498 
L 402.11931 335.942111 
L 404.020098 336.844141 
L 404.970492 335.20571 
L 405.920886 335.833315 
L 406.87128 334.449824 
L 407.821673 336.417889 
L 408.772067 336.12885 
L 409.722461 335.000298 
L 410.672855 338.004357 
L 411.623249 336.02249 
L 412.573643 338.038457 
L 414.47443 336.645223 
L 415.424824 335.6482 
L 416.375218 338.308823 
L 417.325612 337.211123 
L 418.276006 336.661461 
L 419.2264 337.081218 
L 420.176794 337.219242 
L 421.127188 334.098268 
L 423.978369 338.58 
L 424.928763 337.127982 
L 428.730339 337.076415 
L 498.109091 336.865792 
L 498.109091 336.865792 
" clip-path="url(#p50cd7fee3e)" style="fill: none; stroke: #000000; stroke-width: 1.75; stroke-linecap: round"/>
   </g>
   <g id="patch_3">
    <path d="M 72 352.44 
L 72 47.52 
" style="fill: none"/>
   </g>
   <g id="patch_4">
    <path d="M 518.4 352.44 
L 518.4 47.52 
" style="fill: none"/>
   </g>
   <g id="patch_5">
    <path d="M 72 352.44 
L 518.4 352.44 
" style="fill: none"/>
   </g>
   <g id="patch_6">
    <path d="M 72 47.52 
L 518.4 47.52 
" style="fill: none"/>
   </g>
   <g id="text_14">
    <!-- number prediction -->
    <g style="fill: #262626" transform="translate(247.1775 41.52)scale(0.12 -0.12)">
     <defs>
      <path id="ArialMT-20" transform="scale(0.015625)"/>
      <path id="ArialMT-70" d="M 422 -1272 
L 422 3319 
L 934 3319 
L 934 2888 
Q 1116 3141 1344 3267 
Q 1572 3394 1897 3394 
Q 2322 3394 2647 3175 
Q 2972 2956 3137 2557 
Q 3303 2159 3303 1684 
Q 3303 1175 3120 767 
Q 2938 359 2589 142 
Q 2241 -75 1856 -75 
Q 1575 -75 1351 44 
Q 1128 163 984 344 
L 984 -1272 
L 422 -1272 
z
M 931 1641 
Q 931 1000 1190 694 
Q 1450 388 1819 388 
Q 2194 388 2461 705 
Q 2728 1022 2728 1688 
Q 2728 2322 2467 2637 
Q 2206 2953 1844 2953 
Q 1484 2953 1207 2617 
Q 931 2281 931 1641 
z
" transform="scale(0.015625)"/>
      <path id="ArialMT-69" d="M 425 3934 
L 425 4581 
L 988 4581 
L 988 3934 
L 425 3934 
z
M 425 0 
L 425 3319 
L 988 3319 
L 988 0 
L 425 0 
z
" transform="scale(0.015625)"/>
      <path id="ArialMT-63" d="M 2588 1216 
L 3141 1144 
Q 3050 572 2676 248 
Q 2303 -75 1759 -75 
Q 1078 -75 664 370 
Q 250 816 250 1647 
Q 250 2184 428 2587 
Q 606 2991 970 3192 
Q 1334 3394 1763 3394 
Q 2303 3394 2647 3120 
Q 2991 2847 3088 2344 
L 2541 2259 
Q 2463 2594 2264 2762 
Q 2066 2931 1784 2931 
Q 1359 2931 1093 2626 
Q 828 2322 828 1663 
Q 828 994 1084 691 
Q 1341 388 1753 388 
Q 2084 388 2306 591 
Q 2528 794 2588 1216 
z
" transform="scale(0.015625)"/>
      <path id="ArialMT-6f" d="M 213 1659 
Q 213 2581 725 3025 
Q 1153 3394 1769 3394 
Q 2453 3394 2887 2945 
Q 3322 2497 3322 1706 
Q 3322 1066 3130 698 
Q 2938 331 2570 128 
Q 2203 -75 1769 -75 
Q 1072 -75 642 372 
Q 213 819 213 1659 
z
M 791 1659 
Q 791 1022 1069 705 
Q 1347 388 1769 388 
Q 2188 388 2466 706 
Q 2744 1025 2744 1678 
Q 2744 2294 2464 2611 
Q 2184 2928 1769 2928 
Q 1347 2928 1069 2612 
Q 791 2297 791 1659 
z
" transform="scale(0.015625)"/>
     </defs>
     <use xlink:href="#ArialMT-6e"/>
     <use xlink:href="#ArialMT-75" x="55.615234"/>
     <use xlink:href="#ArialMT-6d" x="111.230469"/>
     <use xlink:href="#ArialMT-62" x="194.53125"/>
     <use xlink:href="#ArialMT-65" x="250.146484"/>
     <use xlink:href="#ArialMT-72" x="305.761719"/>
     <use xlink:href="#ArialMT-20" x="339.0625"/>
     <use xlink:href="#ArialMT-70" x="366.845703"/>
     <use xlink:href="#ArialMT-72" x="422.460938"/>
     <use xlink:href="#ArialMT-65" x="455.761719"/>
     <use xlink:href="#ArialMT-64" x="511.376953"/>
     <use xlink:href="#ArialMT-69" x="566.992188"/>
     <use xlink:href="#ArialMT-63" x="589.208984"/>
     <use xlink:href="#ArialMT-74" x="639.208984"/>
     <use xlink:href="#ArialMT-69" x="666.992188"/>
     <use xlink:href="#ArialMT-6f" x="689.208984"/>
     <use xlink:href="#ArialMT-6e" x="744.824219"/>
    </g>
   </g>
   <g id="legend_1">
    <g id="line2d_26">
     <path d="M 442.496875 60.177813 
L 452.496875 60.177813 
L 462.496875 60.177813 
" style="fill: none; stroke: #0000ff; stroke-width: 1.75; stroke-linecap: round"/>
    </g>
    <g id="text_15">
     <!-- max_pre -->
     <g style="fill: #262626" transform="translate(470.496875 63.677813)scale(0.1 -0.1)">
      <defs>
       <path id="ArialMT-78" d="M 47 0 
L 1259 1725 
L 138 3319 
L 841 3319 
L 1350 2541 
Q 1494 2319 1581 2169 
Q 1719 2375 1834 2534 
L 2394 3319 
L 3066 3319 
L 1919 1756 
L 3153 0 
L 2463 0 
L 1781 1031 
L 1600 1309 
L 728 0 
L 47 0 
z
" transform="scale(0.015625)"/>
       <path id="ArialMT-5f" d="M -97 -1272 
L -97 -866 
L 3631 -866 
L 3631 -1272 
L -97 -1272 
z
" transform="scale(0.015625)"/>
      </defs>
      <use xlink:href="#ArialMT-6d"/>
      <use xlink:href="#ArialMT-61" x="83.300781"/>
      <use xlink:href="#ArialMT-78" x="138.916016"/>
      <use xlink:href="#ArialMT-5f" x="188.916016"/>
      <use xlink:href="#ArialMT-70" x="244.53125"/>
      <use xlink:href="#ArialMT-72" x="300.146484"/>
      <use xlink:href="#ArialMT-65" x="333.447266"/>
     </g>
    </g>
    <g id="line2d_27">
     <path d="M 442.496875 74.323125 
L 452.496875 74.323125 
L 462.496875 74.323125 
" style="fill: none; stroke: #008000; stroke-width: 1.75; stroke-linecap: round"/>
    </g>
    <g id="text_16">
     <!-- min_pre -->
     <g style="fill: #262626" transform="translate(470.496875 77.823125)scale(0.1 -0.1)">
      <use xlink:href="#ArialMT-6d"/>
      <use xlink:href="#ArialMT-69" x="83.300781"/>
      <use xlink:href="#ArialMT-6e" x="105.517578"/>
      <use xlink:href="#ArialMT-5f" x="161.132812"/>
      <use xlink:href="#ArialMT-70" x="216.748047"/>
      <use xlink:href="#ArialMT-72" x="272.363281"/>
      <use xlink:href="#ArialMT-65" x="305.664062"/>
     </g>
    </g>
    <g id="line2d_28">
     <path d="M 442.496875 88.468437 
L 452.496875 88.468437 
L 462.496875 88.468437 
" style="fill: none; stroke: #000000; stroke-width: 1.75; stroke-linecap: round"/>
    </g>
    <g id="text_17">
     <!-- pre -->
     <g style="fill: #262626" transform="translate(470.496875 91.968437)scale(0.1 -0.1)">
      <use xlink:href="#ArialMT-70"/>
      <use xlink:href="#ArialMT-72" x="55.615234"/>
      <use xlink:href="#ArialMT-65" x="88.916016"/>
     </g>
    </g>
   </g>
  </g>
 </g>
 <defs>
  <clipPath id="p50cd7fee3e">
   <rect x="72" y="47.52" width="446.4" height="304.92"/>
  </clipPath>
 </defs>
</svg>
